<?xml version="1.0" encoding="UTF-8" standalone="no"?>
<!DOCTYPE svg PUBLIC "-//W3C//DTD SVG 1.1//EN"
 "http://www.w3.org/Graphics/SVG/1.1/DTD/svg11.dtd">
<!-- Generated by graphviz version 2.40.1 (20161225.0304)
 -->
<!-- Title: dependencies Pages: 1 -->
<svg width="1953pt" height="211pt"
 viewBox="0.00 0.00 1953.00 211.00" xmlns="http://www.w3.org/2000/svg" xmlns:xlink="http://www.w3.org/1999/xlink">
<g id="graph0" class="graph" transform="scale(1 1) rotate(0) translate(4 207)">
<title>dependencies</title>
<polygon fill="#ffffff" stroke="transparent" points="-4,4 -4,-207 1949,-207 1949,4 -4,4"/>
<text text-anchor="start" x="951.5091" y="-42.4" font-family="sans-serif" font-weight="bold" font-size="14.00" fill="#000000">Legend</text>
<polygon fill="#ffffb3" stroke="transparent" points="738.5,-10 738.5,-30 758.5,-30 758.5,-10 738.5,-10"/>
<text text-anchor="start" x="762.129" y="-15.4" font-family="sans-serif" font-size="14.00" fill="#000000"> &#160;Declarations</text>
<polygon fill="#8dd3c7" stroke="transparent" points="851.5,-10 851.5,-30 871.5,-30 871.5,-10 851.5,-10"/>
<text text-anchor="start" x="875.2251" y="-15.4" font-family="sans-serif" font-size="14.00" fill="#000000"> &#160;Module</text>
<polygon fill="#80b1d3" stroke="transparent" points="937.5,-10 937.5,-30 957.5,-30 957.5,-10 937.5,-10"/>
<text text-anchor="start" x="961.2812" y="-15.4" font-family="sans-serif" font-size="14.00" fill="#000000"> &#160;Bootstrap</text>
<polygon fill="#fdb462" stroke="transparent" points="1034.5,-10 1034.5,-30 1054.5,-30 1054.5,-10 1034.5,-10"/>
<text text-anchor="start" x="1058.1732" y="-15.4" font-family="sans-serif" font-size="14.00" fill="#000000"> &#160;Providers</text>
<polygon fill="#fb8072" stroke="transparent" points="1130.5,-10 1130.5,-30 1150.5,-30 1150.5,-10 1130.5,-10"/>
<text text-anchor="start" x="1154.2258" y="-15.4" font-family="sans-serif" font-size="14.00" fill="#000000"> &#160;Exports</text>
<g id="clust1" class="cluster">
<title>cluster_CoreModule</title>
<polygon fill="none" stroke="#000000" stroke-dasharray="1,5" points="8,-70 8,-195 1937,-195 1937,-70 8,-70"/>
</g>
<g id="clust6" class="cluster">
<title>cluster_CoreModule_providers</title>
<polygon fill="none" stroke="#000000" points="16,-78 16,-130 1929,-130 1929,-78 16,-78"/>
</g>
<!-- AllocationService -->
<g id="node1" class="node">
<title>AllocationService</title>
<ellipse fill="#fdb462" stroke="#000000" cx="1840" cy="-104" rx="80.5142" ry="18"/>
<text text-anchor="middle" x="1840" y="-99.8" font-family="Times,serif" font-size="14.00" fill="#000000">AllocationService</text>
</g>
<!-- CoreModule -->
<g id="node11" class="node">
<title>CoreModule</title>
<polygon fill="#8dd3c7" stroke="#000000" points="893.2619,-187 890.2619,-191 869.2619,-191 866.2619,-187 806.7381,-187 806.7381,-151 893.2619,-151 893.2619,-187"/>
<text text-anchor="middle" x="850" y="-164.8" font-family="Times,serif" font-size="14.00" fill="#000000">CoreModule</text>
</g>
<!-- AllocationService&#45;&gt;CoreModule -->
<g id="edge1" class="edge">
<title>AllocationService&#45;&gt;CoreModule</title>
<path fill="none" stroke="#000000" d="M1840,-122.0908C1840,-145.1328 1840,-182 1840,-182 1840,-182 903.4955,-182 903.4955,-182"/>
<polygon fill="#000000" stroke="#000000" points="903.4956,-178.5001 893.4955,-182 903.4955,-185.5001 903.4956,-178.5001"/>
</g>
<!-- AuthenticationService -->
<g id="node2" class="node">
<title>AuthenticationService</title>
<ellipse fill="#fdb462" stroke="#000000" cx="1644" cy="-104" rx="97.2683" ry="18"/>
<text text-anchor="middle" x="1644" y="-99.8" font-family="Times,serif" font-size="14.00" fill="#000000">AuthenticationService</text>
</g>
<!-- AuthenticationService&#45;&gt;CoreModule -->
<g id="edge2" class="edge">
<title>AuthenticationService&#45;&gt;CoreModule</title>
<path fill="none" stroke="#000000" d="M1644,-122.2843C1644,-143.3211 1644,-175 1644,-175 1644,-175 903.5359,-175 903.5359,-175"/>
<polygon fill="#000000" stroke="#000000" points="903.5359,-171.5001 893.5359,-175 903.5359,-178.5001 903.5359,-171.5001"/>
</g>
<!-- CourseService -->
<g id="node3" class="node">
<title>CourseService</title>
<ellipse fill="#fdb462" stroke="#000000" cx="1461" cy="-104" rx="67.1927" ry="18"/>
<text text-anchor="middle" x="1461" y="-99.8" font-family="Times,serif" font-size="14.00" fill="#000000">CourseService</text>
</g>
<!-- CourseService&#45;&gt;CoreModule -->
<g id="edge3" class="edge">
<title>CourseService&#45;&gt;CoreModule</title>
<path fill="none" stroke="#000000" d="M1461,-122.1061C1461,-141.3391 1461,-169 1461,-169 1461,-169 903.4518,-169 903.4518,-169"/>
<polygon fill="#000000" stroke="#000000" points="903.4518,-165.5001 893.4518,-169 903.4518,-172.5001 903.4518,-165.5001"/>
</g>
<!-- ErrorHandlerInterceptor -->
<g id="node4" class="node">
<title>ErrorHandlerInterceptor</title>
<ellipse fill="#fdb462" stroke="#000000" cx="1271" cy="-104" rx="104.7327" ry="18"/>
<text text-anchor="middle" x="1271" y="-99.8" font-family="Times,serif" font-size="14.00" fill="#000000">ErrorHandlerInterceptor</text>
</g>
<!-- ErrorHandlerInterceptor&#45;&gt;CoreModule -->
<g id="edge4" class="edge">
<title>ErrorHandlerInterceptor&#45;&gt;CoreModule</title>
<path fill="none" stroke="#000000" d="M1271,-122.0225C1271,-139.3734 1271,-163 1271,-163 1271,-163 903.4687,-163 903.4687,-163"/>
<polygon fill="#000000" stroke="#000000" points="903.4687,-159.5001 893.4687,-163 903.4687,-166.5001 903.4687,-159.5001"/>
</g>
<!-- ErrorMessageService -->
<g id="node5" class="node">
<title>ErrorMessageService</title>
<ellipse fill="#fdb462" stroke="#000000" cx="1054" cy="-104" rx="94.2963" ry="18"/>
<text text-anchor="middle" x="1054" y="-99.8" font-family="Times,serif" font-size="14.00" fill="#000000">ErrorMessageService</text>
</g>
<!-- ErrorMessageService&#45;&gt;CoreModule -->
<g id="edge5" class="edge">
<title>ErrorMessageService&#45;&gt;CoreModule</title>
<path fill="none" stroke="#000000" d="M1054,-122.2396C1054,-137.5706 1054,-157 1054,-157 1054,-157 903.2632,-157 903.2632,-157"/>
<polygon fill="#000000" stroke="#000000" points="903.2632,-153.5001 893.2632,-157 903.2631,-160.5001 903.2632,-153.5001"/>
</g>
<!-- LocalStorageService -->
<g id="node6" class="node">
<title>LocalStorageService</title>
<ellipse fill="#fdb462" stroke="#000000" cx="850" cy="-104" rx="91.4481" ry="18"/>
<text text-anchor="middle" x="850" y="-99.8" font-family="Times,serif" font-size="14.00" fill="#000000">LocalStorageService</text>
</g>
<!-- LocalStorageService&#45;&gt;CoreModule -->
<g id="edge6" class="edge">
<title>LocalStorageService&#45;&gt;CoreModule</title>
<path fill="none" stroke="#000000" d="M850,-122.1061C850,-122.1061 850,-140.991 850,-140.991"/>
<polygon fill="#000000" stroke="#000000" points="846.5001,-140.9909 850,-150.991 853.5001,-140.991 846.5001,-140.9909"/>
</g>
<!-- LocationsService -->
<g id="node7" class="node">
<title>LocationsService</title>
<ellipse fill="#fdb462" stroke="#000000" cx="662" cy="-104" rx="78.1462" ry="18"/>
<text text-anchor="middle" x="662" y="-99.8" font-family="Times,serif" font-size="14.00" fill="#000000">LocationsService</text>
</g>
<!-- LocationsService&#45;&gt;CoreModule -->
<g id="edge7" class="edge">
<title>LocationsService&#45;&gt;CoreModule</title>
<path fill="none" stroke="#000000" d="M662,-122.2396C662,-137.5706 662,-157 662,-157 662,-157 796.3965,-157 796.3965,-157"/>
<polygon fill="#000000" stroke="#000000" points="796.3965,-160.5001 806.3965,-157 796.3964,-153.5001 796.3965,-160.5001"/>
</g>
<!-- OrganisationService -->
<g id="node8" class="node">
<title>OrganisationService</title>
<ellipse fill="#fdb462" stroke="#000000" cx="476" cy="-104" rx="89.7441" ry="18"/>
<text text-anchor="middle" x="476" y="-99.8" font-family="Times,serif" font-size="14.00" fill="#000000">OrganisationService</text>
</g>
<!-- OrganisationService&#45;&gt;CoreModule -->
<g id="edge8" class="edge">
<title>OrganisationService&#45;&gt;CoreModule</title>
<path fill="none" stroke="#000000" d="M476,-122.0225C476,-139.3734 476,-163 476,-163 476,-163 796.7321,-163 796.7321,-163"/>
<polygon fill="#000000" stroke="#000000" points="796.7321,-166.5001 806.7321,-163 796.732,-159.5001 796.7321,-166.5001"/>
</g>
<!-- RequestInterceptor -->
<g id="node9" class="node">
<title>RequestInterceptor</title>
<ellipse fill="#fdb462" stroke="#000000" cx="284" cy="-104" rx="84.5073" ry="18"/>
<text text-anchor="middle" x="284" y="-99.8" font-family="Times,serif" font-size="14.00" fill="#000000">RequestInterceptor</text>
</g>
<!-- RequestInterceptor&#45;&gt;CoreModule -->
<g id="edge9" class="edge">
<title>RequestInterceptor&#45;&gt;CoreModule</title>
<path fill="none" stroke="#000000" d="M312.1679,-121.078C312.1679,-140.3364 312.1679,-169 312.1679,-169 312.1679,-169 796.4425,-169 796.4425,-169"/>
<polygon fill="#000000" stroke="#000000" points="796.4426,-172.5001 806.4425,-169 796.4425,-165.5001 796.4426,-172.5001"/>
</g>
<!-- RequestInterceptor&#45;&gt;CoreModule -->
<g id="edge10" class="edge">
<title>RequestInterceptor&#45;&gt;CoreModule</title>
<path fill="none" stroke="#000000" d="M255.8321,-121.1871C255.8321,-142.1998 255.8321,-175 255.8321,-175 255.8321,-175 796.3094,-175 796.3094,-175"/>
<polygon fill="#000000" stroke="#000000" points="796.3095,-178.5001 806.3094,-175 796.3094,-171.5001 796.3095,-178.5001"/>
</g>
<!-- VolunteerService -->
<g id="node10" class="node">
<title>VolunteerService</title>
<ellipse fill="#fdb462" stroke="#000000" cx="103" cy="-104" rx="78.7086" ry="18"/>
<text text-anchor="middle" x="103" y="-99.8" font-family="Times,serif" font-size="14.00" fill="#000000">VolunteerService</text>
</g>
<!-- VolunteerService&#45;&gt;CoreModule -->
<g id="edge11" class="edge">
<title>VolunteerService&#45;&gt;CoreModule</title>
<path fill="none" stroke="#000000" d="M103,-122.0908C103,-145.1328 103,-182 103,-182 103,-182 796.6093,-182 796.6093,-182"/>
<polygon fill="#000000" stroke="#000000" points="796.6094,-185.5001 806.6093,-182 796.6093,-178.5001 796.6094,-185.5001"/>
</g>
</g>
</svg>
