<?xml version="1.0" encoding="UTF-8" standalone="no"?>
<!DOCTYPE svg PUBLIC "-//W3C//DTD SVG 1.1//EN"
 "http://www.w3.org/Graphics/SVG/1.1/DTD/svg11.dtd">
<!-- Generated by graphviz version 2.40.1 (20161225.0304)
 -->
<!-- Title: dependencies Pages: 1 -->
<svg width="2121pt" height="211pt"
 viewBox="0.00 0.00 2121.00 211.00" xmlns="http://www.w3.org/2000/svg" xmlns:xlink="http://www.w3.org/1999/xlink">
<g id="graph0" class="graph" transform="scale(1 1) rotate(0) translate(4 207)">
<title>dependencies</title>
<polygon fill="#ffffff" stroke="transparent" points="-4,4 -4,-207 2117,-207 2117,4 -4,4"/>
<text text-anchor="start" x="1035.5091" y="-42.4" font-family="sans-serif" font-weight="bold" font-size="14.00" fill="#000000">Legend</text>
<polygon fill="#ffffb3" stroke="transparent" points="822.5,-10 822.5,-30 842.5,-30 842.5,-10 822.5,-10"/>
<text text-anchor="start" x="846.129" y="-15.4" font-family="sans-serif" font-size="14.00" fill="#000000"> &#160;Declarations</text>
<polygon fill="#8dd3c7" stroke="transparent" points="935.5,-10 935.5,-30 955.5,-30 955.5,-10 935.5,-10"/>
<text text-anchor="start" x="959.2251" y="-15.4" font-family="sans-serif" font-size="14.00" fill="#000000"> &#160;Module</text>
<polygon fill="#80b1d3" stroke="transparent" points="1021.5,-10 1021.5,-30 1041.5,-30 1041.5,-10 1021.5,-10"/>
<text text-anchor="start" x="1045.2812" y="-15.4" font-family="sans-serif" font-size="14.00" fill="#000000"> &#160;Bootstrap</text>
<polygon fill="#fdb462" stroke="transparent" points="1118.5,-10 1118.5,-30 1138.5,-30 1138.5,-10 1118.5,-10"/>
<text text-anchor="start" x="1142.1732" y="-15.4" font-family="sans-serif" font-size="14.00" fill="#000000"> &#160;Providers</text>
<polygon fill="#fb8072" stroke="transparent" points="1214.5,-10 1214.5,-30 1234.5,-30 1234.5,-10 1214.5,-10"/>
<text text-anchor="start" x="1238.2258" y="-15.4" font-family="sans-serif" font-size="14.00" fill="#000000"> &#160;Exports</text>
<g id="clust1" class="cluster">
<title>cluster_CoreModule</title>
<polygon fill="none" stroke="#000000" stroke-dasharray="1,5" points="8,-70 8,-195 2105,-195 2105,-70 8,-70"/>
</g>
<g id="clust2" class="cluster">
<title>cluster_CoreModule_declarations</title>
<polygon fill="none" stroke="#000000" points="1911,-78 1911,-130 2097,-130 2097,-78 1911,-78"/>
</g>
<g id="clust7" class="cluster">
<title>cluster_CoreModule_providers</title>
<polygon fill="none" stroke="#000000" points="16,-78 16,-130 1903,-130 1903,-78 16,-78"/>
</g>
<!-- CustomSelectorComponent -->
<g id="node1" class="node">
<title>CustomSelectorComponent</title>
<polygon fill="#ffffb3" stroke="#000000" points="2089.2632,-122 1918.7368,-122 1918.7368,-86 2089.2632,-86 2089.2632,-122"/>
<text text-anchor="middle" x="2004" y="-99.8" font-family="Times,serif" font-size="14.00" fill="#000000">CustomSelectorComponent</text>
</g>
<!-- CoreModule -->
<g id="node2" class="node">
<title>CoreModule</title>
<polygon fill="#8dd3c7" stroke="#000000" points="969.2619,-187 966.2619,-191 945.2619,-191 942.2619,-187 882.7381,-187 882.7381,-151 969.2619,-151 969.2619,-187"/>
<text text-anchor="middle" x="926" y="-164.8" font-family="Times,serif" font-size="14.00" fill="#000000">CoreModule</text>
</g>
<!-- CustomSelectorComponent&#45;&gt;CoreModule -->
<g id="edge1" class="edge">
<title>CustomSelectorComponent&#45;&gt;CoreModule</title>
<path fill="none" stroke="#000000" d="M2004,-122.0908C2004,-145.1328 2004,-182 2004,-182 2004,-182 979.594,-182 979.594,-182"/>
<polygon fill="#000000" stroke="#000000" points="979.5941,-178.5001 969.594,-182 979.594,-185.5001 979.5941,-178.5001"/>
</g>
<!-- AllocationService -->
<g id="node3" class="node">
<title>AllocationService</title>
<ellipse fill="#fdb462" stroke="#000000" cx="1814" cy="-104" rx="80.5142" ry="18"/>
<text text-anchor="middle" x="1814" y="-99.8" font-family="Times,serif" font-size="14.00" fill="#000000">AllocationService</text>
</g>
<!-- AllocationService&#45;&gt;CoreModule -->
<g id="edge2" class="edge">
<title>AllocationService&#45;&gt;CoreModule</title>
<path fill="none" stroke="#000000" d="M1814,-122.2843C1814,-143.3211 1814,-175 1814,-175 1814,-175 979.4312,-175 979.4312,-175"/>
<polygon fill="#000000" stroke="#000000" points="979.4312,-171.5001 969.4312,-175 979.4312,-178.5001 979.4312,-171.5001"/>
</g>
<!-- AuthenticationService -->
<g id="node4" class="node">
<title>AuthenticationService</title>
<ellipse fill="#fdb462" stroke="#000000" cx="1618" cy="-104" rx="97.2683" ry="18"/>
<text text-anchor="middle" x="1618" y="-99.8" font-family="Times,serif" font-size="14.00" fill="#000000">AuthenticationService</text>
</g>
<!-- AuthenticationService&#45;&gt;CoreModule -->
<g id="edge3" class="edge">
<title>AuthenticationService&#45;&gt;CoreModule</title>
<path fill="none" stroke="#000000" d="M1618,-122.1061C1618,-141.3391 1618,-169 1618,-169 1618,-169 979.2877,-169 979.2877,-169"/>
<polygon fill="#000000" stroke="#000000" points="979.2877,-165.5001 969.2877,-169 979.2877,-172.5001 979.2877,-165.5001"/>
</g>
<!-- CourseService -->
<g id="node5" class="node">
<title>CourseService</title>
<ellipse fill="#fdb462" stroke="#000000" cx="1435" cy="-104" rx="67.1927" ry="18"/>
<text text-anchor="middle" x="1435" y="-99.8" font-family="Times,serif" font-size="14.00" fill="#000000">CourseService</text>
</g>
<!-- CourseService&#45;&gt;CoreModule -->
<g id="edge4" class="edge">
<title>CourseService&#45;&gt;CoreModule</title>
<path fill="none" stroke="#000000" d="M1435,-122.0225C1435,-139.3734 1435,-163 1435,-163 1435,-163 979.3971,-163 979.3971,-163"/>
<polygon fill="#000000" stroke="#000000" points="979.3971,-159.5001 969.3971,-163 979.397,-166.5001 979.3971,-159.5001"/>
</g>
<!-- ErrorHandlerInterceptor -->
<g id="node6" class="node">
<title>ErrorHandlerInterceptor</title>
<ellipse fill="#fdb462" stroke="#000000" cx="1245" cy="-104" rx="104.7327" ry="18"/>
<text text-anchor="middle" x="1245" y="-99.8" font-family="Times,serif" font-size="14.00" fill="#000000">ErrorHandlerInterceptor</text>
</g>
<!-- ErrorHandlerInterceptor&#45;&gt;CoreModule -->
<g id="edge5" class="edge">
<title>ErrorHandlerInterceptor&#45;&gt;CoreModule</title>
<path fill="none" stroke="#000000" d="M1245,-122.2396C1245,-137.5706 1245,-157 1245,-157 1245,-157 979.3537,-157 979.3537,-157"/>
<polygon fill="#000000" stroke="#000000" points="979.3538,-153.5001 969.3537,-157 979.3537,-160.5001 979.3538,-153.5001"/>
</g>
<!-- ErrorMessageService -->
<g id="node7" class="node">
<title>ErrorMessageService</title>
<ellipse fill="#fdb462" stroke="#000000" cx="1028" cy="-104" rx="94.2963" ry="18"/>
<text text-anchor="middle" x="1028" y="-99.8" font-family="Times,serif" font-size="14.00" fill="#000000">ErrorMessageService</text>
</g>
<!-- ErrorMessageService&#45;&gt;CoreModule -->
<g id="edge6" class="edge">
<title>ErrorMessageService&#45;&gt;CoreModule</title>
<path fill="none" stroke="#000000" d="M951.6164,-114.7334C951.6164,-114.7334 951.6164,-140.8723 951.6164,-140.8723"/>
<polygon fill="#000000" stroke="#000000" points="948.1165,-140.8722 951.6164,-150.8723 955.1165,-140.8723 948.1165,-140.8722"/>
</g>
<!-- LocalStorageService -->
<g id="node8" class="node">
<title>LocalStorageService</title>
<ellipse fill="#fdb462" stroke="#000000" cx="824" cy="-104" rx="91.4481" ry="18"/>
<text text-anchor="middle" x="824" y="-99.8" font-family="Times,serif" font-size="14.00" fill="#000000">LocalStorageService</text>
</g>
<!-- LocalStorageService&#45;&gt;CoreModule -->
<g id="edge7" class="edge">
<title>LocalStorageService&#45;&gt;CoreModule</title>
<path fill="none" stroke="#000000" d="M899.0466,-114.4434C899.0466,-114.4434 899.0466,-140.9681 899.0466,-140.9681"/>
<polygon fill="#000000" stroke="#000000" points="895.5467,-140.968 899.0466,-150.9681 902.5467,-140.9681 895.5467,-140.968"/>
</g>
<!-- OrganisationService -->
<g id="node9" class="node">
<title>OrganisationService</title>
<ellipse fill="#fdb462" stroke="#000000" cx="625" cy="-104" rx="89.7441" ry="18"/>
<text text-anchor="middle" x="625" y="-99.8" font-family="Times,serif" font-size="14.00" fill="#000000">OrganisationService</text>
</g>
<!-- OrganisationService&#45;&gt;CoreModule -->
<g id="edge8" class="edge">
<title>OrganisationService&#45;&gt;CoreModule</title>
<path fill="none" stroke="#000000" d="M625,-122.2396C625,-137.5706 625,-157 625,-157 625,-157 872.5535,-157 872.5535,-157"/>
<polygon fill="#000000" stroke="#000000" points="872.5535,-160.5001 882.5535,-157 872.5534,-153.5001 872.5535,-160.5001"/>
</g>
<!-- RequestInterceptor -->
<g id="node10" class="node">
<title>RequestInterceptor</title>
<ellipse fill="#fdb462" stroke="#000000" cx="433" cy="-104" rx="84.5073" ry="18"/>
<text text-anchor="middle" x="433" y="-99.8" font-family="Times,serif" font-size="14.00" fill="#000000">RequestInterceptor</text>
</g>
<!-- RequestInterceptor&#45;&gt;CoreModule -->
<g id="edge9" class="edge">
<title>RequestInterceptor&#45;&gt;CoreModule</title>
<path fill="none" stroke="#000000" d="M461.1679,-121.0652C461.1679,-138.4902 461.1679,-163 461.1679,-163 461.1679,-163 872.6871,-163 872.6871,-163"/>
<polygon fill="#000000" stroke="#000000" points="872.6872,-166.5001 882.6871,-163 872.6871,-159.5001 872.6872,-166.5001"/>
</g>
<!-- RequestInterceptor&#45;&gt;CoreModule -->
<g id="edge10" class="edge">
<title>RequestInterceptor&#45;&gt;CoreModule</title>
<path fill="none" stroke="#000000" d="M404.8321,-121.078C404.8321,-140.3364 404.8321,-169 404.8321,-169 404.8321,-169 872.4619,-169 872.4619,-169"/>
<polygon fill="#000000" stroke="#000000" points="872.462,-172.5001 882.4619,-169 872.4619,-165.5001 872.462,-172.5001"/>
</g>
<!-- StaticsService -->
<g id="node11" class="node">
<title>StaticsService</title>
<ellipse fill="#fdb462" stroke="#000000" cx="265" cy="-104" rx="65.9813" ry="18"/>
<text text-anchor="middle" x="265" y="-99.8" font-family="Times,serif" font-size="14.00" fill="#000000">StaticsService</text>
</g>
<!-- StaticsService&#45;&gt;CoreModule -->
<g id="edge11" class="edge">
<title>StaticsService&#45;&gt;CoreModule</title>
<path fill="none" stroke="#000000" d="M265,-122.2843C265,-143.3211 265,-175 265,-175 265,-175 872.6299,-175 872.6299,-175"/>
<polygon fill="#000000" stroke="#000000" points="872.63,-178.5001 882.6299,-175 872.6299,-171.5001 872.63,-178.5001"/>
</g>
<!-- VolunteerService -->
<g id="node12" class="node">
<title>VolunteerService</title>
<ellipse fill="#fdb462" stroke="#000000" cx="103" cy="-104" rx="78.7086" ry="18"/>
<text text-anchor="middle" x="103" y="-99.8" font-family="Times,serif" font-size="14.00" fill="#000000">VolunteerService</text>
</g>
<!-- VolunteerService&#45;&gt;CoreModule -->
<g id="edge12" class="edge">
<title>VolunteerService&#45;&gt;CoreModule</title>
<path fill="none" stroke="#000000" d="M103,-122.0908C103,-145.1328 103,-182 103,-182 103,-182 872.6223,-182 872.6223,-182"/>
<polygon fill="#000000" stroke="#000000" points="872.6223,-185.5001 882.6223,-182 872.6223,-178.5001 872.6223,-185.5001"/>
</g>
</g>
</svg>
