<?xml version="1.0" encoding="UTF-8" standalone="no"?>
<!DOCTYPE svg PUBLIC "-//W3C//DTD SVG 1.1//EN"
 "http://www.w3.org/Graphics/SVG/1.1/DTD/svg11.dtd">
<!-- Generated by graphviz version 2.40.1 (20161225.0304)
 -->
<!-- Title: dependencies Pages: 1 -->
<svg width="1927pt" height="211pt"
 viewBox="0.00 0.00 1927.00 211.00" xmlns="http://www.w3.org/2000/svg" xmlns:xlink="http://www.w3.org/1999/xlink">
<g id="graph0" class="graph" transform="scale(1 1) rotate(0) translate(4 207)">
<title>dependencies</title>
<polygon fill="#ffffff" stroke="transparent" points="-4,4 -4,-207 1923,-207 1923,4 -4,4"/>
<text text-anchor="start" x="938.5091" y="-42.4" font-family="sans-serif" font-weight="bold" font-size="14.00" fill="#000000">Legend</text>
<polygon fill="#ffffb3" stroke="transparent" points="725.5,-10 725.5,-30 745.5,-30 745.5,-10 725.5,-10"/>
<text text-anchor="start" x="749.129" y="-15.4" font-family="sans-serif" font-size="14.00" fill="#000000"> &#160;Declarations</text>
<polygon fill="#8dd3c7" stroke="transparent" points="838.5,-10 838.5,-30 858.5,-30 858.5,-10 838.5,-10"/>
<text text-anchor="start" x="862.2251" y="-15.4" font-family="sans-serif" font-size="14.00" fill="#000000"> &#160;Module</text>
<polygon fill="#80b1d3" stroke="transparent" points="924.5,-10 924.5,-30 944.5,-30 944.5,-10 924.5,-10"/>
<text text-anchor="start" x="948.2812" y="-15.4" font-family="sans-serif" font-size="14.00" fill="#000000"> &#160;Bootstrap</text>
<polygon fill="#fdb462" stroke="transparent" points="1021.5,-10 1021.5,-30 1041.5,-30 1041.5,-10 1021.5,-10"/>
<text text-anchor="start" x="1045.1732" y="-15.4" font-family="sans-serif" font-size="14.00" fill="#000000"> &#160;Providers</text>
<polygon fill="#fb8072" stroke="transparent" points="1117.5,-10 1117.5,-30 1137.5,-30 1137.5,-10 1117.5,-10"/>
<text text-anchor="start" x="1141.2258" y="-15.4" font-family="sans-serif" font-size="14.00" fill="#000000"> &#160;Exports</text>
<g id="clust1" class="cluster">
<title>cluster_CoreModule</title>
<polygon fill="none" stroke="#000000" stroke-dasharray="1,5" points="8,-70 8,-195 1911,-195 1911,-70 8,-70"/>
</g>
<g id="clust6" class="cluster">
<title>cluster_CoreModule_providers</title>
<polygon fill="none" stroke="#000000" points="16,-78 16,-130 1903,-130 1903,-78 16,-78"/>
</g>
<!-- AllocationService -->
<g id="node1" class="node">
<title>AllocationService</title>
<ellipse fill="#fdb462" stroke="#000000" cx="1814" cy="-104" rx="80.5142" ry="18"/>
<text text-anchor="middle" x="1814" y="-99.8" font-family="Times,serif" font-size="14.00" fill="#000000">AllocationService</text>
</g>
<!-- CoreModule -->
<g id="node11" class="node">
<title>CoreModule</title>
<polygon fill="#8dd3c7" stroke="#000000" points="867.2619,-187 864.2619,-191 843.2619,-191 840.2619,-187 780.7381,-187 780.7381,-151 867.2619,-151 867.2619,-187"/>
<text text-anchor="middle" x="824" y="-164.8" font-family="Times,serif" font-size="14.00" fill="#000000">CoreModule</text>
</g>
<!-- AllocationService&#45;&gt;CoreModule -->
<g id="edge1" class="edge">
<title>AllocationService&#45;&gt;CoreModule</title>
<path fill="none" stroke="#000000" d="M1814,-122.0908C1814,-145.1328 1814,-182 1814,-182 1814,-182 877.4955,-182 877.4955,-182"/>
<polygon fill="#000000" stroke="#000000" points="877.4956,-178.5001 867.4955,-182 877.4955,-185.5001 877.4956,-178.5001"/>
</g>
<!-- AuthenticationService -->
<g id="node2" class="node">
<title>AuthenticationService</title>
<ellipse fill="#fdb462" stroke="#000000" cx="1618" cy="-104" rx="97.2683" ry="18"/>
<text text-anchor="middle" x="1618" y="-99.8" font-family="Times,serif" font-size="14.00" fill="#000000">AuthenticationService</text>
</g>
<!-- AuthenticationService&#45;&gt;CoreModule -->
<g id="edge2" class="edge">
<title>AuthenticationService&#45;&gt;CoreModule</title>
<path fill="none" stroke="#000000" d="M1618,-122.2843C1618,-143.3211 1618,-175 1618,-175 1618,-175 877.5359,-175 877.5359,-175"/>
<polygon fill="#000000" stroke="#000000" points="877.5359,-171.5001 867.5359,-175 877.5359,-178.5001 877.5359,-171.5001"/>
</g>
<!-- CourseService -->
<g id="node3" class="node">
<title>CourseService</title>
<ellipse fill="#fdb462" stroke="#000000" cx="1435" cy="-104" rx="67.1927" ry="18"/>
<text text-anchor="middle" x="1435" y="-99.8" font-family="Times,serif" font-size="14.00" fill="#000000">CourseService</text>
</g>
<!-- CourseService&#45;&gt;CoreModule -->
<g id="edge3" class="edge">
<title>CourseService&#45;&gt;CoreModule</title>
<path fill="none" stroke="#000000" d="M1435,-122.1061C1435,-141.3391 1435,-169 1435,-169 1435,-169 877.4518,-169 877.4518,-169"/>
<polygon fill="#000000" stroke="#000000" points="877.4518,-165.5001 867.4518,-169 877.4518,-172.5001 877.4518,-165.5001"/>
</g>
<!-- ErrorHandlerInterceptor -->
<g id="node4" class="node">
<title>ErrorHandlerInterceptor</title>
<ellipse fill="#fdb462" stroke="#000000" cx="1245" cy="-104" rx="104.7327" ry="18"/>
<text text-anchor="middle" x="1245" y="-99.8" font-family="Times,serif" font-size="14.00" fill="#000000">ErrorHandlerInterceptor</text>
</g>
<!-- ErrorHandlerInterceptor&#45;&gt;CoreModule -->
<g id="edge4" class="edge">
<title>ErrorHandlerInterceptor&#45;&gt;CoreModule</title>
<path fill="none" stroke="#000000" d="M1245,-122.0225C1245,-139.3734 1245,-163 1245,-163 1245,-163 877.4687,-163 877.4687,-163"/>
<polygon fill="#000000" stroke="#000000" points="877.4687,-159.5001 867.4687,-163 877.4687,-166.5001 877.4687,-159.5001"/>
</g>
<!-- ErrorMessageService -->
<g id="node5" class="node">
<title>ErrorMessageService</title>
<ellipse fill="#fdb462" stroke="#000000" cx="1028" cy="-104" rx="94.2963" ry="18"/>
<text text-anchor="middle" x="1028" y="-99.8" font-family="Times,serif" font-size="14.00" fill="#000000">ErrorMessageService</text>
</g>
<!-- ErrorMessageService&#45;&gt;CoreModule -->
<g id="edge5" class="edge">
<title>ErrorMessageService&#45;&gt;CoreModule</title>
<path fill="none" stroke="#000000" d="M1028,-122.2396C1028,-137.5706 1028,-157 1028,-157 1028,-157 877.2632,-157 877.2632,-157"/>
<polygon fill="#000000" stroke="#000000" points="877.2632,-153.5001 867.2632,-157 877.2631,-160.5001 877.2632,-153.5001"/>
</g>
<!-- LocalStorageService -->
<g id="node6" class="node">
<title>LocalStorageService</title>
<ellipse fill="#fdb462" stroke="#000000" cx="824" cy="-104" rx="91.4481" ry="18"/>
<text text-anchor="middle" x="824" y="-99.8" font-family="Times,serif" font-size="14.00" fill="#000000">LocalStorageService</text>
</g>
<!-- LocalStorageService&#45;&gt;CoreModule -->
<g id="edge6" class="edge">
<title>LocalStorageService&#45;&gt;CoreModule</title>
<path fill="none" stroke="#000000" d="M824,-122.1061C824,-122.1061 824,-140.991 824,-140.991"/>
<polygon fill="#000000" stroke="#000000" points="820.5001,-140.9909 824,-150.991 827.5001,-140.991 820.5001,-140.9909"/>
</g>
<!-- OrganisationService -->
<g id="node7" class="node">
<title>OrganisationService</title>
<ellipse fill="#fdb462" stroke="#000000" cx="625" cy="-104" rx="89.7441" ry="18"/>
<text text-anchor="middle" x="625" y="-99.8" font-family="Times,serif" font-size="14.00" fill="#000000">OrganisationService</text>
</g>
<!-- OrganisationService&#45;&gt;CoreModule -->
<g id="edge7" class="edge">
<title>OrganisationService&#45;&gt;CoreModule</title>
<path fill="none" stroke="#000000" d="M625,-122.2396C625,-137.5706 625,-157 625,-157 625,-157 770.3286,-157 770.3286,-157"/>
<polygon fill="#000000" stroke="#000000" points="770.3286,-160.5001 780.3286,-157 770.3286,-153.5001 770.3286,-160.5001"/>
</g>
<!-- RequestInterceptor -->
<g id="node8" class="node">
<title>RequestInterceptor</title>
<ellipse fill="#fdb462" stroke="#000000" cx="433" cy="-104" rx="84.5073" ry="18"/>
<text text-anchor="middle" x="433" y="-99.8" font-family="Times,serif" font-size="14.00" fill="#000000">RequestInterceptor</text>
</g>
<!-- RequestInterceptor&#45;&gt;CoreModule -->
<g id="edge8" class="edge">
<title>RequestInterceptor&#45;&gt;CoreModule</title>
<path fill="none" stroke="#000000" d="M404.8321,-121.078C404.8321,-140.3364 404.8321,-169 404.8321,-169 404.8321,-169 770.7205,-169 770.7205,-169"/>
<polygon fill="#000000" stroke="#000000" points="770.7205,-172.5001 780.7205,-169 770.7204,-165.5001 770.7205,-172.5001"/>
</g>
<!-- RequestInterceptor&#45;&gt;CoreModule -->
<g id="edge9" class="edge">
<title>RequestInterceptor&#45;&gt;CoreModule</title>
<path fill="none" stroke="#000000" d="M461.1679,-121.0652C461.1679,-138.4902 461.1679,-163 461.1679,-163 461.1679,-163 770.5944,-163 770.5944,-163"/>
<polygon fill="#000000" stroke="#000000" points="770.5944,-166.5001 780.5944,-163 770.5943,-159.5001 770.5944,-166.5001"/>
</g>
<!-- StaticsService -->
<g id="node9" class="node">
<title>StaticsService</title>
<ellipse fill="#fdb462" stroke="#000000" cx="265" cy="-104" rx="65.9813" ry="18"/>
<text text-anchor="middle" x="265" y="-99.8" font-family="Times,serif" font-size="14.00" fill="#000000">StaticsService</text>
</g>
<!-- StaticsService&#45;&gt;CoreModule -->
<g id="edge10" class="edge">
<title>StaticsService&#45;&gt;CoreModule</title>
<path fill="none" stroke="#000000" d="M265,-122.2843C265,-143.3211 265,-175 265,-175 265,-175 770.6014,-175 770.6014,-175"/>
<polygon fill="#000000" stroke="#000000" points="770.6014,-178.5001 780.6014,-175 770.6013,-171.5001 770.6014,-178.5001"/>
</g>
<!-- VolunteerService -->
<g id="node10" class="node">
<title>VolunteerService</title>
<ellipse fill="#fdb462" stroke="#000000" cx="103" cy="-104" rx="78.7086" ry="18"/>
<text text-anchor="middle" x="103" y="-99.8" font-family="Times,serif" font-size="14.00" fill="#000000">VolunteerService</text>
</g>
<!-- VolunteerService&#45;&gt;CoreModule -->
<g id="edge11" class="edge">
<title>VolunteerService&#45;&gt;CoreModule</title>
<path fill="none" stroke="#000000" d="M103,-122.0908C103,-145.1328 103,-182 103,-182 103,-182 770.5219,-182 770.5219,-182"/>
<polygon fill="#000000" stroke="#000000" points="770.5219,-185.5001 780.5219,-182 770.5219,-178.5001 770.5219,-185.5001"/>
</g>
</g>
</svg>
