<?xml version="1.0" encoding="UTF-8" standalone="no"?>
<!DOCTYPE svg PUBLIC "-//W3C//DTD SVG 1.1//EN"
 "http://www.w3.org/Graphics/SVG/1.1/DTD/svg11.dtd">
<!-- Generated by graphviz version 2.40.1 (20161225.0304)
 -->
<!-- Title: dependencies Pages: 1 -->
<svg width="892pt" height="211pt"
 viewBox="0.00 0.00 892.00 211.00" xmlns="http://www.w3.org/2000/svg" xmlns:xlink="http://www.w3.org/1999/xlink">
<g id="graph0" class="graph" transform="scale(1 1) rotate(0) translate(4 207)">
<title>dependencies</title>
<polygon fill="#ffffff" stroke="transparent" points="-4,4 -4,-207 888,-207 888,4 -4,4"/>
<text text-anchor="start" x="421.0091" y="-42.4" font-family="sans-serif" font-weight="bold" font-size="14.00" fill="#000000">Legend</text>
<polygon fill="#ffffb3" stroke="transparent" points="208,-10 208,-30 228,-30 228,-10 208,-10"/>
<text text-anchor="start" x="231.629" y="-15.4" font-family="sans-serif" font-size="14.00" fill="#000000"> &#160;Declarations</text>
<polygon fill="#8dd3c7" stroke="transparent" points="321,-10 321,-30 341,-30 341,-10 321,-10"/>
<text text-anchor="start" x="344.7251" y="-15.4" font-family="sans-serif" font-size="14.00" fill="#000000"> &#160;Module</text>
<polygon fill="#80b1d3" stroke="transparent" points="407,-10 407,-30 427,-30 427,-10 407,-10"/>
<text text-anchor="start" x="430.7812" y="-15.4" font-family="sans-serif" font-size="14.00" fill="#000000"> &#160;Bootstrap</text>
<polygon fill="#fdb462" stroke="transparent" points="504,-10 504,-30 524,-30 524,-10 504,-10"/>
<text text-anchor="start" x="527.6732" y="-15.4" font-family="sans-serif" font-size="14.00" fill="#000000"> &#160;Providers</text>
<polygon fill="#fb8072" stroke="transparent" points="600,-10 600,-30 620,-30 620,-10 600,-10"/>
<text text-anchor="start" x="623.7258" y="-15.4" font-family="sans-serif" font-size="14.00" fill="#000000"> &#160;Exports</text>
<g id="clust1" class="cluster">
<title>cluster_VolunteerPageModule</title>
<polygon fill="none" stroke="#000000" stroke-dasharray="1,5" points="8,-70 8,-195 876,-195 876,-70 8,-70"/>
</g>
<g id="clust2" class="cluster">
<title>cluster_VolunteerPageModule_declarations</title>
<polygon fill="none" stroke="#000000" points="16,-78 16,-130 868,-130 868,-78 16,-78"/>
</g>
<!-- AddVolunteerComponent -->
<g id="node1" class="node">
<title>AddVolunteerComponent</title>
<polygon fill="#ffffb3" stroke="#000000" points="859.9171,-122 698.0829,-122 698.0829,-86 859.9171,-86 859.9171,-122"/>
<text text-anchor="middle" x="779" y="-99.8" font-family="Times,serif" font-size="14.00" fill="#000000">AddVolunteerComponent</text>
</g>
<!-- VolunteerPageModule -->
<g id="node6" class="node">
<title>VolunteerPageModule</title>
<polygon fill="#8dd3c7" stroke="#000000" points="495.2394,-187 492.2394,-191 471.2394,-191 468.2394,-187 352.7606,-187 352.7606,-151 495.2394,-151 495.2394,-187"/>
<text text-anchor="middle" x="424" y="-164.8" font-family="Times,serif" font-size="14.00" fill="#000000">VolunteerPageModule</text>
</g>
<!-- AddVolunteerComponent&#45;&gt;VolunteerPageModule -->
<g id="edge1" class="edge">
<title>AddVolunteerComponent&#45;&gt;VolunteerPageModule</title>
<path fill="none" stroke="#000000" d="M779,-122.2843C779,-143.3211 779,-175 779,-175 779,-175 505.4125,-175 505.4125,-175"/>
<polygon fill="#000000" stroke="#000000" points="505.4125,-171.5001 495.4125,-175 505.4125,-178.5001 505.4125,-171.5001"/>
</g>
<!-- ListVolunteerComponent -->
<g id="node2" class="node">
<title>ListVolunteerComponent</title>
<polygon fill="#ffffb3" stroke="#000000" points="680.5884,-122 521.4116,-122 521.4116,-86 680.5884,-86 680.5884,-122"/>
<text text-anchor="middle" x="601" y="-99.8" font-family="Times,serif" font-size="14.00" fill="#000000">ListVolunteerComponent</text>
</g>
<!-- ListVolunteerComponent&#45;&gt;VolunteerPageModule -->
<g id="edge2" class="edge">
<title>ListVolunteerComponent&#45;&gt;VolunteerPageModule</title>
<path fill="none" stroke="#000000" d="M601,-122.0225C601,-139.3734 601,-163 601,-163 601,-163 505.4825,-163 505.4825,-163"/>
<polygon fill="#000000" stroke="#000000" points="505.4825,-159.5001 495.4825,-163 505.4824,-166.5001 505.4825,-159.5001"/>
</g>
<!-- SendMessageComponent -->
<g id="node3" class="node">
<title>SendMessageComponent</title>
<polygon fill="#ffffb3" stroke="#000000" points="503.3075,-122 344.6925,-122 344.6925,-86 503.3075,-86 503.3075,-122"/>
<text text-anchor="middle" x="424" y="-99.8" font-family="Times,serif" font-size="14.00" fill="#000000">SendMessageComponent</text>
</g>
<!-- SendMessageComponent&#45;&gt;VolunteerPageModule -->
<g id="edge3" class="edge">
<title>SendMessageComponent&#45;&gt;VolunteerPageModule</title>
<path fill="none" stroke="#000000" d="M424,-122.1061C424,-122.1061 424,-140.991 424,-140.991"/>
<polygon fill="#000000" stroke="#000000" points="420.5001,-140.9909 424,-150.991 427.5001,-140.991 420.5001,-140.9909"/>
</g>
<!-- ValidateVolunteerComponent -->
<g id="node4" class="node">
<title>ValidateVolunteerComponent</title>
<polygon fill="#ffffb3" stroke="#000000" points="326.2324,-122 141.7676,-122 141.7676,-86 326.2324,-86 326.2324,-122"/>
<text text-anchor="middle" x="234" y="-99.8" font-family="Times,serif" font-size="14.00" fill="#000000">ValidateVolunteerComponent</text>
</g>
<!-- ValidateVolunteerComponent&#45;&gt;VolunteerPageModule -->
<g id="edge4" class="edge">
<title>ValidateVolunteerComponent&#45;&gt;VolunteerPageModule</title>
<path fill="none" stroke="#000000" d="M234,-122.0225C234,-139.3734 234,-163 234,-163 234,-163 342.7104,-163 342.7104,-163"/>
<polygon fill="#000000" stroke="#000000" points="342.7105,-166.5001 352.7104,-163 342.7104,-159.5001 342.7105,-166.5001"/>
</g>
<!-- VolunteerPage -->
<g id="node5" class="node">
<title>VolunteerPage</title>
<polygon fill="#ffffb3" stroke="#000000" points="123.6896,-122 24.3104,-122 24.3104,-86 123.6896,-86 123.6896,-122"/>
<text text-anchor="middle" x="74" y="-99.8" font-family="Times,serif" font-size="14.00" fill="#000000">VolunteerPage</text>
</g>
<!-- VolunteerPage&#45;&gt;VolunteerPageModule -->
<g id="edge5" class="edge">
<title>VolunteerPage&#45;&gt;VolunteerPageModule</title>
<path fill="none" stroke="#000000" d="M74,-122.2843C74,-143.3211 74,-175 74,-175 74,-175 342.7504,-175 342.7504,-175"/>
<polygon fill="#000000" stroke="#000000" points="342.7504,-178.5001 352.7504,-175 342.7504,-171.5001 342.7504,-178.5001"/>
</g>
</g>
</svg>
