<?xml version="1.0" encoding="UTF-8" standalone="no"?>
<!DOCTYPE svg PUBLIC "-//W3C//DTD SVG 1.1//EN"
 "http://www.w3.org/Graphics/SVG/1.1/DTD/svg11.dtd">
<!-- Generated by graphviz version 2.40.1 (20161225.0304)
 -->
<!-- Title: dependencies Pages: 1 -->
<svg width="839pt" height="211pt"
 viewBox="0.00 0.00 839.00 211.00" xmlns="http://www.w3.org/2000/svg" xmlns:xlink="http://www.w3.org/1999/xlink">
<g id="graph0" class="graph" transform="scale(1 1) rotate(0) translate(4 207)">
<title>dependencies</title>
<polygon fill="#ffffff" stroke="transparent" points="-4,4 -4,-207 835,-207 835,4 -4,4"/>
<text text-anchor="start" x="394.5091" y="-42.4" font-family="sans-serif" font-weight="bold" font-size="14.00" fill="#000000">Legend</text>
<polygon fill="#ffffb3" stroke="transparent" points="181.5,-10 181.5,-30 201.5,-30 201.5,-10 181.5,-10"/>
<text text-anchor="start" x="205.129" y="-15.4" font-family="sans-serif" font-size="14.00" fill="#000000"> &#160;Declarations</text>
<polygon fill="#8dd3c7" stroke="transparent" points="294.5,-10 294.5,-30 314.5,-30 314.5,-10 294.5,-10"/>
<text text-anchor="start" x="318.2251" y="-15.4" font-family="sans-serif" font-size="14.00" fill="#000000"> &#160;Module</text>
<polygon fill="#80b1d3" stroke="transparent" points="380.5,-10 380.5,-30 400.5,-30 400.5,-10 380.5,-10"/>
<text text-anchor="start" x="404.2812" y="-15.4" font-family="sans-serif" font-size="14.00" fill="#000000"> &#160;Bootstrap</text>
<polygon fill="#fdb462" stroke="transparent" points="477.5,-10 477.5,-30 497.5,-30 497.5,-10 477.5,-10"/>
<text text-anchor="start" x="501.1732" y="-15.4" font-family="sans-serif" font-size="14.00" fill="#000000"> &#160;Providers</text>
<polygon fill="#fb8072" stroke="transparent" points="573.5,-10 573.5,-30 593.5,-30 593.5,-10 573.5,-10"/>
<text text-anchor="start" x="597.2258" y="-15.4" font-family="sans-serif" font-size="14.00" fill="#000000"> &#160;Exports</text>
<g id="clust1" class="cluster">
<title>cluster_AuthenticationPageModule</title>
<polygon fill="none" stroke="#000000" stroke-dasharray="1,5" points="8,-70 8,-195 823,-195 823,-70 8,-70"/>
</g>
<g id="clust2" class="cluster">
<title>cluster_AuthenticationPageModule_declarations</title>
<polygon fill="none" stroke="#000000" points="16,-78 16,-130 815,-130 815,-78 16,-78"/>
</g>
<!-- AuthenticationPage -->
<g id="node1" class="node">
<title>AuthenticationPage</title>
<polygon fill="#ffffb3" stroke="#000000" points="807.4159,-122 680.5841,-122 680.5841,-86 807.4159,-86 807.4159,-122"/>
<text text-anchor="middle" x="744" y="-99.8" font-family="Times,serif" font-size="14.00" fill="#000000">AuthenticationPage</text>
</g>
<!-- AuthenticationPageModule -->
<g id="node6" class="node">
<title>AuthenticationPageModule</title>
<polygon fill="#8dd3c7" stroke="#000000" points="553.965,-187 550.965,-191 529.965,-191 526.965,-187 384.035,-187 384.035,-151 553.965,-151 553.965,-187"/>
<text text-anchor="middle" x="469" y="-164.8" font-family="Times,serif" font-size="14.00" fill="#000000">AuthenticationPageModule</text>
</g>
<!-- AuthenticationPage&#45;&gt;AuthenticationPageModule -->
<g id="edge1" class="edge">
<title>AuthenticationPage&#45;&gt;AuthenticationPageModule</title>
<path fill="none" stroke="#000000" d="M744,-122.1061C744,-141.3391 744,-169 744,-169 744,-169 564.1284,-169 564.1284,-169"/>
<polygon fill="#000000" stroke="#000000" points="564.1285,-165.5001 554.1284,-169 564.1284,-172.5001 564.1285,-165.5001"/>
</g>
<!-- LoginComponent -->
<g id="node2" class="node">
<title>LoginComponent</title>
<polygon fill="#ffffb3" stroke="#000000" points="662.2758,-122 547.7242,-122 547.7242,-86 662.2758,-86 662.2758,-122"/>
<text text-anchor="middle" x="605" y="-99.8" font-family="Times,serif" font-size="14.00" fill="#000000">LoginComponent</text>
</g>
<!-- LoginComponent&#45;&gt;AuthenticationPageModule -->
<g id="edge2" class="edge">
<title>LoginComponent&#45;&gt;AuthenticationPageModule</title>
<path fill="none" stroke="#000000" d="M547.6848,-104C542.2689,-104 538.75,-104 538.75,-104 538.75,-104 538.75,-140.8939 538.75,-140.8939"/>
<polygon fill="#000000" stroke="#000000" points="535.2501,-140.8938 538.75,-150.8939 542.2501,-140.8939 535.2501,-140.8938"/>
</g>
<!-- LogoutComponent -->
<g id="node3" class="node">
<title>LogoutComponent</title>
<polygon fill="#ffffb3" stroke="#000000" points="529.7758,-122 408.2242,-122 408.2242,-86 529.7758,-86 529.7758,-122"/>
<text text-anchor="middle" x="469" y="-99.8" font-family="Times,serif" font-size="14.00" fill="#000000">LogoutComponent</text>
</g>
<!-- LogoutComponent&#45;&gt;AuthenticationPageModule -->
<g id="edge3" class="edge">
<title>LogoutComponent&#45;&gt;AuthenticationPageModule</title>
<path fill="none" stroke="#000000" d="M469,-122.1061C469,-122.1061 469,-140.991 469,-140.991"/>
<polygon fill="#000000" stroke="#000000" points="465.5001,-140.9909 469,-150.991 472.5001,-140.991 465.5001,-140.9909"/>
</g>
<!-- RecoverPasswordComponent -->
<g id="node4" class="node">
<title>RecoverPasswordComponent</title>
<polygon fill="#ffffb3" stroke="#000000" points="389.6274,-122 208.3726,-122 208.3726,-86 389.6274,-86 389.6274,-122"/>
<text text-anchor="middle" x="299" y="-99.8" font-family="Times,serif" font-size="14.00" fill="#000000">RecoverPasswordComponent</text>
</g>
<!-- RecoverPasswordComponent&#45;&gt;AuthenticationPageModule -->
<g id="edge4" class="edge">
<title>RecoverPasswordComponent&#45;&gt;AuthenticationPageModule</title>
<path fill="none" stroke="#000000" d="M389.7378,-104C395.4485,-104 398.9629,-104 398.9629,-104 398.9629,-104 398.9629,-140.8939 398.9629,-140.8939"/>
<polygon fill="#000000" stroke="#000000" points="395.4629,-140.8938 398.9629,-150.8939 402.4629,-140.8939 395.4629,-140.8938"/>
</g>
<!-- ResetPasswordComponent -->
<g id="node5" class="node">
<title>ResetPasswordComponent</title>
<polygon fill="#ffffb3" stroke="#000000" points="190.087,-122 23.913,-122 23.913,-86 190.087,-86 190.087,-122"/>
<text text-anchor="middle" x="107" y="-99.8" font-family="Times,serif" font-size="14.00" fill="#000000">ResetPasswordComponent</text>
</g>
<!-- ResetPasswordComponent&#45;&gt;AuthenticationPageModule -->
<g id="edge5" class="edge">
<title>ResetPasswordComponent&#45;&gt;AuthenticationPageModule</title>
<path fill="none" stroke="#000000" d="M107,-122.1061C107,-141.3391 107,-169 107,-169 107,-169 373.6695,-169 373.6695,-169"/>
<polygon fill="#000000" stroke="#000000" points="373.6695,-172.5001 383.6695,-169 373.6694,-165.5001 373.6695,-172.5001"/>
</g>
</g>
</svg>
