<?xml version="1.0" encoding="UTF-8" standalone="no"?>
<!DOCTYPE svg PUBLIC "-//W3C//DTD SVG 1.1//EN"
 "http://www.w3.org/Graphics/SVG/1.1/DTD/svg11.dtd">
<!-- Generated by graphviz version 2.40.1 (20161225.0304)
 -->
<!-- Title: dependencies Pages: 1 -->
<svg width="3916pt" height="360pt"
 viewBox="0.00 0.00 3916.00 360.00" xmlns="http://www.w3.org/2000/svg" xmlns:xlink="http://www.w3.org/1999/xlink">
<g id="graph0" class="graph" transform="scale(1 1) rotate(0) translate(4 356)">
<title>dependencies</title>
<polygon fill="#ffffff" stroke="transparent" points="-4,4 -4,-356 3912,-356 3912,4 -4,4"/>
<text text-anchor="start" x="1933.0091" y="-42.4" font-family="sans-serif" font-weight="bold" font-size="14.00" fill="#000000">Legend</text>
<polygon fill="#ffffb3" stroke="transparent" points="1720,-10 1720,-30 1740,-30 1740,-10 1720,-10"/>
<text text-anchor="start" x="1743.629" y="-15.4" font-family="sans-serif" font-size="14.00" fill="#000000"> &#160;Declarations</text>
<polygon fill="#8dd3c7" stroke="transparent" points="1833,-10 1833,-30 1853,-30 1853,-10 1833,-10"/>
<text text-anchor="start" x="1856.7251" y="-15.4" font-family="sans-serif" font-size="14.00" fill="#000000"> &#160;Module</text>
<polygon fill="#80b1d3" stroke="transparent" points="1919,-10 1919,-30 1939,-30 1939,-10 1919,-10"/>
<text text-anchor="start" x="1942.7812" y="-15.4" font-family="sans-serif" font-size="14.00" fill="#000000"> &#160;Bootstrap</text>
<polygon fill="#fdb462" stroke="transparent" points="2016,-10 2016,-30 2036,-30 2036,-10 2016,-10"/>
<text text-anchor="start" x="2039.6732" y="-15.4" font-family="sans-serif" font-size="14.00" fill="#000000"> &#160;Providers</text>
<polygon fill="#fb8072" stroke="transparent" points="2112,-10 2112,-30 2132,-30 2132,-10 2112,-10"/>
<text text-anchor="start" x="2135.7258" y="-15.4" font-family="sans-serif" font-size="14.00" fill="#000000"> &#160;Exports</text>
<g id="clust1" class="cluster">
<title>cluster_AboutPageModule</title>
<polygon fill="none" stroke="#000000" stroke-dasharray="1,5" points="8,-70 8,-206 146,-206 146,-70 8,-70"/>
</g>
<g id="clust2" class="cluster">
<title>cluster_AboutPageModule_declarations</title>
<polygon fill="none" stroke="#000000" points="30,-78 30,-130 124,-130 124,-78 30,-78"/>
</g>
<g id="clust8" class="cluster">
<title>cluster_AppModule</title>
<polygon fill="none" stroke="#000000" stroke-dasharray="1,5" points="911,-146 911,-344 1306,-344 1306,-146 911,-146"/>
</g>
<g id="clust9" class="cluster">
<title>cluster_AppModule_declarations</title>
<polygon fill="none" stroke="#000000" points="1176,-154 1176,-206 1298,-206 1298,-154 1176,-154"/>
</g>
<g id="clust11" class="cluster">
<title>cluster_AppModule_imports</title>
<polygon fill="none" stroke="#000000" points="919,-154 919,-206 1168,-206 1168,-154 919,-154"/>
</g>
<g id="clust13" class="cluster">
<title>cluster_AppModule_bootstrap</title>
<polygon fill="none" stroke="#000000" points="1034,-284 1034,-336 1158,-336 1158,-284 1034,-284"/>
</g>
<g id="clust21" class="cluster">
<title>cluster_AuthenticationPageModule</title>
<polygon fill="none" stroke="#000000" stroke-dasharray="1,5" points="2065,-70 2065,-206 2880,-206 2880,-70 2065,-70"/>
</g>
<g id="clust22" class="cluster">
<title>cluster_AuthenticationPageModule_declarations</title>
<polygon fill="none" stroke="#000000" points="2073,-78 2073,-130 2872,-130 2872,-78 2073,-78"/>
</g>
<g id="clust32" class="cluster">
<title>cluster_CoreModule</title>
<polygon fill="none" stroke="#000000" stroke-dasharray="1,5" points="154,-70 154,-138 2057,-138 2057,-70 154,-70"/>
</g>
<g id="clust37" class="cluster">
<title>cluster_CoreModule_providers</title>
<polygon fill="none" stroke="#000000" points="162,-78 162,-130 2049,-130 2049,-78 162,-78"/>
</g>
<g id="clust38" class="cluster">
<title>cluster_HomePageModule</title>
<polygon fill="none" stroke="#000000" stroke-dasharray="1,5" points="2888,-70 2888,-206 3024,-206 3024,-70 2888,-70"/>
</g>
<g id="clust39" class="cluster">
<title>cluster_HomePageModule_declarations</title>
<polygon fill="none" stroke="#000000" points="2909,-78 2909,-130 3003,-130 3003,-78 2909,-78"/>
</g>
<g id="clust45" class="cluster">
<title>cluster_VolunteerPageModule</title>
<polygon fill="none" stroke="#000000" stroke-dasharray="1,5" points="3032,-70 3032,-206 3900,-206 3900,-70 3032,-70"/>
</g>
<g id="clust46" class="cluster">
<title>cluster_VolunteerPageModule_declarations</title>
<polygon fill="none" stroke="#000000" points="3040,-78 3040,-130 3892,-130 3892,-78 3040,-78"/>
</g>
<!-- AboutPage -->
<g id="node1" class="node">
<title>AboutPage</title>
<polygon fill="#ffffb3" stroke="#000000" points="116.2093,-122 37.7907,-122 37.7907,-86 116.2093,-86 116.2093,-122"/>
<text text-anchor="middle" x="77" y="-99.8" font-family="Times,serif" font-size="14.00" fill="#000000">AboutPage</text>
</g>
<!-- AboutPageModule -->
<g id="node2" class="node">
<title>AboutPageModule</title>
<polygon fill="#8dd3c7" stroke="#000000" points="137.759,-198 134.759,-202 113.759,-202 110.759,-198 16.241,-198 16.241,-162 137.759,-162 137.759,-198"/>
<text text-anchor="middle" x="77" y="-175.8" font-family="Times,serif" font-size="14.00" fill="#000000">AboutPageModule</text>
</g>
<!-- AboutPage&#45;&gt;AboutPageModule -->
<g id="edge1" class="edge">
<title>AboutPage&#45;&gt;AboutPageModule</title>
<path fill="none" stroke="#000000" d="M77,-122.0109C77,-122.0109 77,-151.855 77,-151.855"/>
<polygon fill="#000000" stroke="#000000" points="73.5001,-151.8549 77,-161.855 80.5001,-151.855 73.5001,-151.8549"/>
</g>
<!-- AppComponent -->
<g id="node3" class="node">
<title>AppComponent</title>
<polygon fill="#ffffb3" stroke="#000000" points="1289.9399,-198 1184.0601,-198 1184.0601,-162 1289.9399,-162 1289.9399,-198"/>
<text text-anchor="middle" x="1237" y="-175.8" font-family="Times,serif" font-size="14.00" fill="#000000">AppComponent</text>
</g>
<!-- AppModule -->
<g id="node4" class="node">
<title>AppModule</title>
<polygon fill="#8dd3c7" stroke="#000000" points="1137.6571,-263 1134.6571,-267 1113.6571,-267 1110.6571,-263 1054.3429,-263 1054.3429,-227 1137.6571,-227 1137.6571,-263"/>
<text text-anchor="middle" x="1096" y="-240.8" font-family="Times,serif" font-size="14.00" fill="#000000">AppModule</text>
</g>
<!-- AppComponent&#45;&gt;AppModule -->
<g id="edge2" class="edge">
<title>AppComponent&#45;&gt;AppModule</title>
<path fill="none" stroke="#000000" d="M1237,-198.1061C1237,-217.3391 1237,-245 1237,-245 1237,-245 1147.9229,-245 1147.9229,-245"/>
<polygon fill="#000000" stroke="#000000" points="1147.9229,-241.5001 1137.9229,-245 1147.9229,-248.5001 1147.9229,-241.5001"/>
</g>
<!-- AppComponent  -->
<g id="node7" class="node">
<title>AppComponent </title>
<polygon fill="#80b1d3" stroke="#000000" points="1150.439,-328 1041.561,-328 1041.561,-292 1150.439,-292 1150.439,-328"/>
<text text-anchor="middle" x="1096" y="-305.8" font-family="Times,serif" font-size="14.00" fill="#000000">AppComponent </text>
</g>
<!-- AppModule&#45;&gt;AppComponent  -->
<g id="edge5" class="edge">
<title>AppModule&#45;&gt;AppComponent </title>
<path fill="none" stroke="#000000" stroke-dasharray="1,5" d="M1096,-263.1061C1096,-263.1061 1096,-281.991 1096,-281.991"/>
<polygon fill="#000000" stroke="#000000" points="1092.5001,-281.9909 1096,-291.991 1099.5001,-281.991 1092.5001,-281.9909"/>
</g>
<!-- AppRoutingModule -->
<g id="node5" class="node">
<title>AppRoutingModule</title>
<polygon fill="#8dd3c7" stroke="#000000" points="1160.2744,-198 1157.2744,-202 1136.2744,-202 1133.2744,-198 1031.7256,-198 1031.7256,-162 1160.2744,-162 1160.2744,-198"/>
<text text-anchor="middle" x="1096" y="-175.8" font-family="Times,serif" font-size="14.00" fill="#000000">AppRoutingModule</text>
</g>
<!-- AppRoutingModule&#45;&gt;AppModule -->
<g id="edge3" class="edge">
<title>AppRoutingModule&#45;&gt;AppModule</title>
<path fill="none" stroke="#000000" d="M1096,-198.1061C1096,-198.1061 1096,-216.991 1096,-216.991"/>
<polygon fill="#000000" stroke="#000000" points="1092.5001,-216.9909 1096,-226.991 1099.5001,-216.991 1092.5001,-216.9909"/>
</g>
<!-- CoreModule -->
<g id="node6" class="node">
<title>CoreModule</title>
<polygon fill="#8dd3c7" stroke="#000000" points="1013.2619,-198 1010.2619,-202 989.2619,-202 986.2619,-198 926.7381,-198 926.7381,-162 1013.2619,-162 1013.2619,-198"/>
<text text-anchor="middle" x="970" y="-175.8" font-family="Times,serif" font-size="14.00" fill="#000000">CoreModule</text>
</g>
<!-- CoreModule&#45;&gt;AppModule -->
<g id="edge4" class="edge">
<title>CoreModule&#45;&gt;AppModule</title>
<path fill="none" stroke="#000000" d="M970,-198.1061C970,-217.3391 970,-245 970,-245 970,-245 1044.0438,-245 1044.0438,-245"/>
<polygon fill="#000000" stroke="#000000" points="1044.0439,-248.5001 1054.0438,-245 1044.0438,-241.5001 1044.0439,-248.5001"/>
</g>
<!-- AuthenticationPage -->
<g id="node8" class="node">
<title>AuthenticationPage</title>
<polygon fill="#ffffb3" stroke="#000000" points="2864.4159,-122 2737.5841,-122 2737.5841,-86 2864.4159,-86 2864.4159,-122"/>
<text text-anchor="middle" x="2801" y="-99.8" font-family="Times,serif" font-size="14.00" fill="#000000">AuthenticationPage</text>
</g>
<!-- AuthenticationPageModule -->
<g id="node13" class="node">
<title>AuthenticationPageModule</title>
<polygon fill="#8dd3c7" stroke="#000000" points="2610.965,-198 2607.965,-202 2586.965,-202 2583.965,-198 2441.035,-198 2441.035,-162 2610.965,-162 2610.965,-198"/>
<text text-anchor="middle" x="2526" y="-175.8" font-family="Times,serif" font-size="14.00" fill="#000000">AuthenticationPageModule</text>
</g>
<!-- AuthenticationPage&#45;&gt;AuthenticationPageModule -->
<g id="edge6" class="edge">
<title>AuthenticationPage&#45;&gt;AuthenticationPageModule</title>
<path fill="none" stroke="#000000" d="M2801,-122.0109C2801,-144.4852 2801,-180 2801,-180 2801,-180 2621.1284,-180 2621.1284,-180"/>
<polygon fill="#000000" stroke="#000000" points="2621.1285,-176.5001 2611.1284,-180 2621.1284,-183.5001 2621.1285,-176.5001"/>
</g>
<!-- LoginComponent -->
<g id="node9" class="node">
<title>LoginComponent</title>
<polygon fill="#ffffb3" stroke="#000000" points="2719.2758,-122 2604.7242,-122 2604.7242,-86 2719.2758,-86 2719.2758,-122"/>
<text text-anchor="middle" x="2662" y="-99.8" font-family="Times,serif" font-size="14.00" fill="#000000">LoginComponent</text>
</g>
<!-- LoginComponent&#45;&gt;AuthenticationPageModule -->
<g id="edge7" class="edge">
<title>LoginComponent&#45;&gt;AuthenticationPageModule</title>
<path fill="none" stroke="#000000" d="M2604.6848,-104C2599.2689,-104 2595.75,-104 2595.75,-104 2595.75,-104 2595.75,-151.9891 2595.75,-151.9891"/>
<polygon fill="#000000" stroke="#000000" points="2592.2501,-151.989 2595.75,-161.9891 2599.2501,-151.9891 2592.2501,-151.989"/>
</g>
<!-- LogoutComponent -->
<g id="node10" class="node">
<title>LogoutComponent</title>
<polygon fill="#ffffb3" stroke="#000000" points="2586.7758,-122 2465.2242,-122 2465.2242,-86 2586.7758,-86 2586.7758,-122"/>
<text text-anchor="middle" x="2526" y="-99.8" font-family="Times,serif" font-size="14.00" fill="#000000">LogoutComponent</text>
</g>
<!-- LogoutComponent&#45;&gt;AuthenticationPageModule -->
<g id="edge8" class="edge">
<title>LogoutComponent&#45;&gt;AuthenticationPageModule</title>
<path fill="none" stroke="#000000" d="M2526,-122.0109C2526,-122.0109 2526,-151.855 2526,-151.855"/>
<polygon fill="#000000" stroke="#000000" points="2522.5001,-151.8549 2526,-161.855 2529.5001,-151.855 2522.5001,-151.8549"/>
</g>
<!-- RecoverPasswordComponent -->
<g id="node11" class="node">
<title>RecoverPasswordComponent</title>
<polygon fill="#ffffb3" stroke="#000000" points="2446.6274,-122 2265.3726,-122 2265.3726,-86 2446.6274,-86 2446.6274,-122"/>
<text text-anchor="middle" x="2356" y="-99.8" font-family="Times,serif" font-size="14.00" fill="#000000">RecoverPasswordComponent</text>
</g>
<!-- RecoverPasswordComponent&#45;&gt;AuthenticationPageModule -->
<g id="edge9" class="edge">
<title>RecoverPasswordComponent&#45;&gt;AuthenticationPageModule</title>
<path fill="none" stroke="#000000" d="M2446.7378,-104C2452.4485,-104 2455.9629,-104 2455.9629,-104 2455.9629,-104 2455.9629,-151.9891 2455.9629,-151.9891"/>
<polygon fill="#000000" stroke="#000000" points="2452.4629,-151.989 2455.9629,-161.9891 2459.4629,-151.9891 2452.4629,-151.989"/>
</g>
<!-- ResetPasswordComponent -->
<g id="node12" class="node">
<title>ResetPasswordComponent</title>
<polygon fill="#ffffb3" stroke="#000000" points="2247.087,-122 2080.913,-122 2080.913,-86 2247.087,-86 2247.087,-122"/>
<text text-anchor="middle" x="2164" y="-99.8" font-family="Times,serif" font-size="14.00" fill="#000000">ResetPasswordComponent</text>
</g>
<!-- ResetPasswordComponent&#45;&gt;AuthenticationPageModule -->
<g id="edge10" class="edge">
<title>ResetPasswordComponent&#45;&gt;AuthenticationPageModule</title>
<path fill="none" stroke="#000000" d="M2164,-122.0109C2164,-144.4852 2164,-180 2164,-180 2164,-180 2430.6695,-180 2430.6695,-180"/>
<polygon fill="#000000" stroke="#000000" points="2430.6695,-183.5001 2440.6695,-180 2430.6694,-176.5001 2430.6695,-183.5001"/>
</g>
<!-- AllocationService -->
<g id="node14" class="node">
<title>AllocationService</title>
<ellipse fill="#fdb462" stroke="#000000" cx="1960" cy="-104" rx="80.5142" ry="18"/>
<text text-anchor="middle" x="1960" y="-99.8" font-family="Times,serif" font-size="14.00" fill="#000000">AllocationService</text>
</g>
<!-- AllocationService&#45;&gt;CoreModule -->
<g id="edge11" class="edge">
<title>AllocationService&#45;&gt;CoreModule</title>
<path fill="none" stroke="#000000" d="M1960,-122.1871C1960,-137.1824 1960,-156 1960,-156 1960,-156 1000.9863,-156 1000.9863,-156 1000.9863,-156 1000.9863,-156.581 1000.9863,-156.581"/>
<polygon fill="#000000" stroke="#000000" points="997.4865,-151.8097 1000.9863,-161.8097 1004.4865,-151.8098 997.4865,-151.8097"/>
</g>
<!-- AuthenticationService -->
<g id="node15" class="node">
<title>AuthenticationService</title>
<ellipse fill="#fdb462" stroke="#000000" cx="1764" cy="-104" rx="97.2683" ry="18"/>
<text text-anchor="middle" x="1764" y="-99.8" font-family="Times,serif" font-size="14.00" fill="#000000">AuthenticationService</text>
</g>
<!-- AuthenticationService&#45;&gt;CoreModule -->
<g id="edge12" class="edge">
<title>AuthenticationService&#45;&gt;CoreModule</title>
<path fill="none" stroke="#000000" d="M1764,-122.0439C1764,-134.5633 1764,-149 1764,-149 1764,-149 988.5918,-149 988.5918,-149 988.5918,-149 988.5918,-151.9672 988.5918,-151.9672"/>
<polygon fill="#000000" stroke="#000000" points="985.0919,-151.9671 988.5918,-161.9672 992.0919,-151.9672 985.0919,-151.9671"/>
</g>
<!-- CourseService -->
<g id="node16" class="node">
<title>CourseService</title>
<ellipse fill="#fdb462" stroke="#000000" cx="1581" cy="-104" rx="67.1927" ry="18"/>
<text text-anchor="middle" x="1581" y="-99.8" font-family="Times,serif" font-size="14.00" fill="#000000">CourseService</text>
</g>
<!-- CourseService&#45;&gt;CoreModule -->
<g id="edge13" class="edge">
<title>CourseService&#45;&gt;CoreModule</title>
<path fill="none" stroke="#000000" d="M1581,-122.1097C1581,-131.897 1581,-142 1581,-142 1581,-142 976.1973,-142 976.1973,-142 976.1973,-142 976.1973,-151.8903 976.1973,-151.8903"/>
<polygon fill="#000000" stroke="#000000" points="972.6974,-151.8903 976.1973,-161.8903 979.6974,-151.8904 972.6974,-151.8903"/>
</g>
<!-- ErrorHandlerInterceptor -->
<g id="node17" class="node">
<title>ErrorHandlerInterceptor</title>
<ellipse fill="#fdb462" stroke="#000000" cx="1391" cy="-104" rx="104.7327" ry="18"/>
<text text-anchor="middle" x="1391" y="-99.8" font-family="Times,serif" font-size="14.00" fill="#000000">ErrorHandlerInterceptor</text>
</g>
<!-- ErrorHandlerInterceptor&#45;&gt;CoreModule -->
<g id="edge14" class="edge">
<title>ErrorHandlerInterceptor&#45;&gt;CoreModule</title>
<path fill="none" stroke="#000000" d="M1392.7929,-122.2434C1392.7929,-129.4297 1392.7929,-136 1392.7929,-136 1392.7929,-136 963.8027,-136 963.8027,-136 963.8027,-136 963.8027,-151.8495 963.8027,-151.8495"/>
<polygon fill="#000000" stroke="#000000" points="960.3028,-151.8494 963.8027,-161.8495 967.3028,-151.8495 960.3028,-151.8494"/>
</g>
<!-- ErrorMessageService -->
<g id="node18" class="node">
<title>ErrorMessageService</title>
<ellipse fill="#fdb462" stroke="#000000" cx="1174" cy="-104" rx="94.2963" ry="18"/>
<text text-anchor="middle" x="1174" y="-99.8" font-family="Times,serif" font-size="14.00" fill="#000000">ErrorMessageService</text>
</g>
<!-- ErrorMessageService&#45;&gt;CoreModule -->
<g id="edge15" class="edge">
<title>ErrorMessageService&#45;&gt;CoreModule</title>
<path fill="none" stroke="#000000" d="M1120.1195,-118.8315C1120.1195,-124.2148 1120.1195,-129 1120.1195,-129 1120.1195,-129 951.4082,-129 951.4082,-129 951.4082,-129 951.4082,-151.8757 951.4082,-151.8757"/>
<polygon fill="#000000" stroke="#000000" points="947.9083,-151.8757 951.4082,-161.8757 954.9083,-151.8757 947.9083,-151.8757"/>
</g>
<!-- LocalStorageService -->
<g id="node19" class="node">
<title>LocalStorageService</title>
<ellipse fill="#fdb462" stroke="#000000" cx="970" cy="-104" rx="91.4481" ry="18"/>
<text text-anchor="middle" x="970" y="-99.8" font-family="Times,serif" font-size="14.00" fill="#000000">LocalStorageService</text>
</g>
<!-- LocalStorageService&#45;&gt;CoreModule -->
<g id="edge16" class="edge">
<title>LocalStorageService&#45;&gt;CoreModule</title>
<path fill="none" stroke="#000000" d="M939.0137,-121.2456C939.0137,-121.2456 939.0137,-151.7629 939.0137,-151.7629"/>
<polygon fill="#000000" stroke="#000000" points="935.5138,-151.7628 939.0137,-161.7629 942.5138,-151.7629 935.5138,-151.7628"/>
</g>
<!-- OrganisationService -->
<g id="node20" class="node">
<title>OrganisationService</title>
<ellipse fill="#fdb462" stroke="#000000" cx="771" cy="-104" rx="89.7441" ry="18"/>
<text text-anchor="middle" x="771" y="-99.8" font-family="Times,serif" font-size="14.00" fill="#000000">OrganisationService</text>
</g>
<!-- OrganisationService&#45;&gt;CoreModule -->
<g id="edge17" class="edge">
<title>OrganisationService&#45;&gt;CoreModule</title>
<path fill="none" stroke="#000000" d="M771,-122.1686C771,-141.0898 771,-168 771,-168 771,-168 916.3286,-168 916.3286,-168"/>
<polygon fill="#000000" stroke="#000000" points="916.3286,-171.5001 926.3286,-168 916.3286,-164.5001 916.3286,-171.5001"/>
</g>
<!-- RequestInterceptor -->
<g id="node21" class="node">
<title>RequestInterceptor</title>
<ellipse fill="#fdb462" stroke="#000000" cx="579" cy="-104" rx="84.5073" ry="18"/>
<text text-anchor="middle" x="579" y="-99.8" font-family="Times,serif" font-size="14.00" fill="#000000">RequestInterceptor</text>
</g>
<!-- RequestInterceptor&#45;&gt;CoreModule -->
<g id="edge18" class="edge">
<title>RequestInterceptor&#45;&gt;CoreModule</title>
<path fill="none" stroke="#000000" d="M607.1679,-121.3034C607.1679,-142.0324 607.1679,-174 607.1679,-174 607.1679,-174 916.5944,-174 916.5944,-174"/>
<polygon fill="#000000" stroke="#000000" points="916.5944,-177.5001 926.5944,-174 916.5943,-170.5001 916.5944,-177.5001"/>
</g>
<!-- RequestInterceptor&#45;&gt;CoreModule -->
<g id="edge19" class="edge">
<title>RequestInterceptor&#45;&gt;CoreModule</title>
<path fill="none" stroke="#000000" d="M550.8321,-121.2456C550.8321,-143.6688 550.8321,-180 550.8321,-180 550.8321,-180 916.7205,-180 916.7205,-180"/>
<polygon fill="#000000" stroke="#000000" points="916.7205,-183.5001 926.7205,-180 916.7204,-176.5001 916.7205,-183.5001"/>
</g>
<!-- StaticsService -->
<g id="node22" class="node">
<title>StaticsService</title>
<ellipse fill="#fdb462" stroke="#000000" cx="411" cy="-104" rx="65.9813" ry="18"/>
<text text-anchor="middle" x="411" y="-99.8" font-family="Times,serif" font-size="14.00" fill="#000000">StaticsService</text>
</g>
<!-- StaticsService&#45;&gt;CoreModule -->
<g id="edge20" class="edge">
<title>StaticsService&#45;&gt;CoreModule</title>
<path fill="none" stroke="#000000" d="M411,-122.1985C411,-146.3563 411,-186 411,-186 411,-186 916.6014,-186 916.6014,-186"/>
<polygon fill="#000000" stroke="#000000" points="916.6014,-189.5001 926.6014,-186 916.6013,-182.5001 916.6014,-189.5001"/>
</g>
<!-- VolunteerService -->
<g id="node23" class="node">
<title>VolunteerService</title>
<ellipse fill="#fdb462" stroke="#000000" cx="249" cy="-104" rx="78.7086" ry="18"/>
<text text-anchor="middle" x="249" y="-99.8" font-family="Times,serif" font-size="14.00" fill="#000000">VolunteerService</text>
</g>
<!-- VolunteerService&#45;&gt;CoreModule -->
<g id="edge21" class="edge">
<title>VolunteerService&#45;&gt;CoreModule</title>
<path fill="none" stroke="#000000" d="M249,-122.2337C249,-148.0094 249,-192 249,-192 249,-192 916.5219,-192 916.5219,-192"/>
<polygon fill="#000000" stroke="#000000" points="916.5219,-195.5001 926.5219,-192 916.5219,-188.5001 916.5219,-195.5001"/>
</g>
<!-- HomePage -->
<g id="node24" class="node">
<title>HomePage</title>
<polygon fill="#ffffb3" stroke="#000000" points="2994.9248,-122 2917.0752,-122 2917.0752,-86 2994.9248,-86 2994.9248,-122"/>
<text text-anchor="middle" x="2956" y="-99.8" font-family="Times,serif" font-size="14.00" fill="#000000">HomePage</text>
</g>
<!-- HomePageModule -->
<g id="node25" class="node">
<title>HomePageModule</title>
<polygon fill="#8dd3c7" stroke="#000000" points="3016.4734,-198 3013.4734,-202 2992.4734,-202 2989.4734,-198 2895.5266,-198 2895.5266,-162 3016.4734,-162 3016.4734,-198"/>
<text text-anchor="middle" x="2956" y="-175.8" font-family="Times,serif" font-size="14.00" fill="#000000">HomePageModule</text>
</g>
<!-- HomePage&#45;&gt;HomePageModule -->
<g id="edge22" class="edge">
<title>HomePage&#45;&gt;HomePageModule</title>
<path fill="none" stroke="#000000" d="M2956,-122.0109C2956,-122.0109 2956,-151.855 2956,-151.855"/>
<polygon fill="#000000" stroke="#000000" points="2952.5001,-151.8549 2956,-161.855 2959.5001,-151.855 2952.5001,-151.8549"/>
</g>
<!-- AddVolunteerComponent -->
<g id="node26" class="node">
<title>AddVolunteerComponent</title>
<polygon fill="#ffffb3" stroke="#000000" points="3883.9171,-122 3722.0829,-122 3722.0829,-86 3883.9171,-86 3883.9171,-122"/>
<text text-anchor="middle" x="3803" y="-99.8" font-family="Times,serif" font-size="14.00" fill="#000000">AddVolunteerComponent</text>
</g>
<!-- VolunteerPageModule -->
<g id="node31" class="node">
<title>VolunteerPageModule</title>
<polygon fill="#8dd3c7" stroke="#000000" points="3519.2394,-198 3516.2394,-202 3495.2394,-202 3492.2394,-198 3376.7606,-198 3376.7606,-162 3519.2394,-162 3519.2394,-198"/>
<text text-anchor="middle" x="3448" y="-175.8" font-family="Times,serif" font-size="14.00" fill="#000000">VolunteerPageModule</text>
</g>
<!-- AddVolunteerComponent&#45;&gt;VolunteerPageModule -->
<g id="edge23" class="edge">
<title>AddVolunteerComponent&#45;&gt;VolunteerPageModule</title>
<path fill="none" stroke="#000000" d="M3803,-122.1985C3803,-146.3563 3803,-186 3803,-186 3803,-186 3529.4125,-186 3529.4125,-186"/>
<polygon fill="#000000" stroke="#000000" points="3529.4125,-182.5001 3519.4125,-186 3529.4125,-189.5001 3529.4125,-182.5001"/>
</g>
<!-- ListVolunteerComponent -->
<g id="node27" class="node">
<title>ListVolunteerComponent</title>
<polygon fill="#ffffb3" stroke="#000000" points="3704.5884,-122 3545.4116,-122 3545.4116,-86 3704.5884,-86 3704.5884,-122"/>
<text text-anchor="middle" x="3625" y="-99.8" font-family="Times,serif" font-size="14.00" fill="#000000">ListVolunteerComponent</text>
</g>
<!-- ListVolunteerComponent&#45;&gt;VolunteerPageModule -->
<g id="edge24" class="edge">
<title>ListVolunteerComponent&#45;&gt;VolunteerPageModule</title>
<path fill="none" stroke="#000000" d="M3625,-122.0267C3625,-142.7672 3625,-174 3625,-174 3625,-174 3529.4825,-174 3529.4825,-174"/>
<polygon fill="#000000" stroke="#000000" points="3529.4825,-170.5001 3519.4825,-174 3529.4824,-177.5001 3529.4825,-170.5001"/>
</g>
<!-- SendMessageComponent -->
<g id="node28" class="node">
<title>SendMessageComponent</title>
<polygon fill="#ffffb3" stroke="#000000" points="3527.3075,-122 3368.6925,-122 3368.6925,-86 3527.3075,-86 3527.3075,-122"/>
<text text-anchor="middle" x="3448" y="-99.8" font-family="Times,serif" font-size="14.00" fill="#000000">SendMessageComponent</text>
</g>
<!-- SendMessageComponent&#45;&gt;VolunteerPageModule -->
<g id="edge25" class="edge">
<title>SendMessageComponent&#45;&gt;VolunteerPageModule</title>
<path fill="none" stroke="#000000" d="M3448,-122.0109C3448,-122.0109 3448,-151.855 3448,-151.855"/>
<polygon fill="#000000" stroke="#000000" points="3444.5001,-151.8549 3448,-161.855 3451.5001,-151.855 3444.5001,-151.8549"/>
</g>
<!-- ValidateVolunteerComponent -->
<g id="node29" class="node">
<title>ValidateVolunteerComponent</title>
<polygon fill="#ffffb3" stroke="#000000" points="3350.2324,-122 3165.7676,-122 3165.7676,-86 3350.2324,-86 3350.2324,-122"/>
<text text-anchor="middle" x="3258" y="-99.8" font-family="Times,serif" font-size="14.00" fill="#000000">ValidateVolunteerComponent</text>
</g>
<!-- ValidateVolunteerComponent&#45;&gt;VolunteerPageModule -->
<g id="edge26" class="edge">
<title>ValidateVolunteerComponent&#45;&gt;VolunteerPageModule</title>
<path fill="none" stroke="#000000" d="M3258,-122.0267C3258,-142.7672 3258,-174 3258,-174 3258,-174 3366.7104,-174 3366.7104,-174"/>
<polygon fill="#000000" stroke="#000000" points="3366.7105,-177.5001 3376.7104,-174 3366.7104,-170.5001 3366.7105,-177.5001"/>
</g>
<!-- VolunteerPage -->
<g id="node30" class="node">
<title>VolunteerPage</title>
<polygon fill="#ffffb3" stroke="#000000" points="3147.6896,-122 3048.3104,-122 3048.3104,-86 3147.6896,-86 3147.6896,-122"/>
<text text-anchor="middle" x="3098" y="-99.8" font-family="Times,serif" font-size="14.00" fill="#000000">VolunteerPage</text>
</g>
<!-- VolunteerPage&#45;&gt;VolunteerPageModule -->
<g id="edge27" class="edge">
<title>VolunteerPage&#45;&gt;VolunteerPageModule</title>
<path fill="none" stroke="#000000" d="M3098,-122.1985C3098,-146.3563 3098,-186 3098,-186 3098,-186 3366.7504,-186 3366.7504,-186"/>
<polygon fill="#000000" stroke="#000000" points="3366.7504,-189.5001 3376.7504,-186 3366.7504,-182.5001 3366.7504,-189.5001"/>
</g>
</g>
</svg>
