<?xml version="1.0" encoding="UTF-8" standalone="no"?>
<!DOCTYPE svg PUBLIC "-//W3C//DTD SVG 1.1//EN"
 "http://www.w3.org/Graphics/SVG/1.1/DTD/svg11.dtd">
<!-- Generated by graphviz version 2.40.1 (20161225.0304)
 -->
<!-- Title: dependencies Pages: 1 -->
<svg width="3415pt" height="360pt"
 viewBox="0.00 0.00 3415.00 360.00" xmlns="http://www.w3.org/2000/svg" xmlns:xlink="http://www.w3.org/1999/xlink">
<g id="graph0" class="graph" transform="scale(1 1) rotate(0) translate(4 356)">
<title>dependencies</title>
<polygon fill="#ffffff" stroke="transparent" points="-4,4 -4,-356 3411,-356 3411,4 -4,4"/>
<text text-anchor="start" x="1682.5091" y="-42.4" font-family="sans-serif" font-weight="bold" font-size="14.00" fill="#000000">Legend</text>
<polygon fill="#ffffb3" stroke="transparent" points="1469.5,-10 1469.5,-30 1489.5,-30 1489.5,-10 1469.5,-10"/>
<text text-anchor="start" x="1493.129" y="-15.4" font-family="sans-serif" font-size="14.00" fill="#000000"> &#160;Declarations</text>
<polygon fill="#8dd3c7" stroke="transparent" points="1582.5,-10 1582.5,-30 1602.5,-30 1602.5,-10 1582.5,-10"/>
<text text-anchor="start" x="1606.2251" y="-15.4" font-family="sans-serif" font-size="14.00" fill="#000000"> &#160;Module</text>
<polygon fill="#80b1d3" stroke="transparent" points="1668.5,-10 1668.5,-30 1688.5,-30 1688.5,-10 1668.5,-10"/>
<text text-anchor="start" x="1692.2812" y="-15.4" font-family="sans-serif" font-size="14.00" fill="#000000"> &#160;Bootstrap</text>
<polygon fill="#fdb462" stroke="transparent" points="1765.5,-10 1765.5,-30 1785.5,-30 1785.5,-10 1765.5,-10"/>
<text text-anchor="start" x="1789.1732" y="-15.4" font-family="sans-serif" font-size="14.00" fill="#000000"> &#160;Providers</text>
<polygon fill="#fb8072" stroke="transparent" points="1861.5,-10 1861.5,-30 1881.5,-30 1881.5,-10 1861.5,-10"/>
<text text-anchor="start" x="1885.2258" y="-15.4" font-family="sans-serif" font-size="14.00" fill="#000000"> &#160;Exports</text>
<g id="clust1" class="cluster">
<title>cluster_AboutPageModule</title>
<polygon fill="none" stroke="#000000" stroke-dasharray="1,5" points="8,-70 8,-206 146,-206 146,-70 8,-70"/>
</g>
<g id="clust2" class="cluster">
<title>cluster_AboutPageModule_declarations</title>
<polygon fill="none" stroke="#000000" points="30,-78 30,-130 124,-130 124,-78 30,-78"/>
</g>
<g id="clust8" class="cluster">
<title>cluster_AppModule</title>
<polygon fill="none" stroke="#000000" stroke-dasharray="1,5" points="937,-146 937,-344 1332,-344 1332,-146 937,-146"/>
</g>
<g id="clust9" class="cluster">
<title>cluster_AppModule_declarations</title>
<polygon fill="none" stroke="#000000" points="1202,-154 1202,-206 1324,-206 1324,-154 1202,-154"/>
</g>
<g id="clust11" class="cluster">
<title>cluster_AppModule_imports</title>
<polygon fill="none" stroke="#000000" points="945,-154 945,-206 1194,-206 1194,-154 945,-154"/>
</g>
<g id="clust13" class="cluster">
<title>cluster_AppModule_bootstrap</title>
<polygon fill="none" stroke="#000000" points="1060,-284 1060,-336 1184,-336 1184,-284 1060,-284"/>
</g>
<g id="clust21" class="cluster">
<title>cluster_CoreModule</title>
<polygon fill="none" stroke="#000000" stroke-dasharray="1,5" points="154,-70 154,-138 2083,-138 2083,-70 154,-70"/>
</g>
<g id="clust26" class="cluster">
<title>cluster_CoreModule_providers</title>
<polygon fill="none" stroke="#000000" points="162,-78 162,-130 2075,-130 2075,-78 162,-78"/>
</g>
<g id="clust27" class="cluster">
<title>cluster_HomePageModule</title>
<polygon fill="none" stroke="#000000" stroke-dasharray="1,5" points="2091,-70 2091,-206 2227,-206 2227,-70 2091,-70"/>
</g>
<g id="clust28" class="cluster">
<title>cluster_HomePageModule_declarations</title>
<polygon fill="none" stroke="#000000" points="2112,-78 2112,-130 2206,-130 2206,-78 2112,-78"/>
</g>
<g id="clust34" class="cluster">
<title>cluster_LoginPageModule</title>
<polygon fill="none" stroke="#000000" stroke-dasharray="1,5" points="2235,-70 2235,-206 2371,-206 2371,-70 2235,-70"/>
</g>
<g id="clust35" class="cluster">
<title>cluster_LoginPageModule_declarations</title>
<polygon fill="none" stroke="#000000" points="2257,-78 2257,-130 2349,-130 2349,-78 2257,-78"/>
</g>
<g id="clust41" class="cluster">
<title>cluster_LogoutPageModule</title>
<polygon fill="none" stroke="#000000" stroke-dasharray="1,5" points="2379,-70 2379,-206 2523,-206 2523,-70 2379,-70"/>
</g>
<g id="clust42" class="cluster">
<title>cluster_LogoutPageModule_declarations</title>
<polygon fill="none" stroke="#000000" points="2401,-78 2401,-130 2501,-130 2501,-78 2401,-78"/>
</g>
<g id="clust48" class="cluster">
<title>cluster_VolunteerPageModule</title>
<polygon fill="none" stroke="#000000" stroke-dasharray="1,5" points="2531,-70 2531,-206 3399,-206 3399,-70 2531,-70"/>
</g>
<g id="clust49" class="cluster">
<title>cluster_VolunteerPageModule_declarations</title>
<polygon fill="none" stroke="#000000" points="2539,-78 2539,-130 3391,-130 3391,-78 2539,-78"/>
</g>
<!-- AboutPage -->
<g id="node1" class="node">
<title>AboutPage</title>
<polygon fill="#ffffb3" stroke="#000000" points="116.2093,-122 37.7907,-122 37.7907,-86 116.2093,-86 116.2093,-122"/>
<text text-anchor="middle" x="77" y="-99.8" font-family="Times,serif" font-size="14.00" fill="#000000">AboutPage</text>
</g>
<!-- AboutPageModule -->
<g id="node2" class="node">
<title>AboutPageModule</title>
<polygon fill="#8dd3c7" stroke="#000000" points="137.759,-198 134.759,-202 113.759,-202 110.759,-198 16.241,-198 16.241,-162 137.759,-162 137.759,-198"/>
<text text-anchor="middle" x="77" y="-175.8" font-family="Times,serif" font-size="14.00" fill="#000000">AboutPageModule</text>
</g>
<!-- AboutPage&#45;&gt;AboutPageModule -->
<g id="edge1" class="edge">
<title>AboutPage&#45;&gt;AboutPageModule</title>
<path fill="none" stroke="#000000" d="M77,-122.0109C77,-122.0109 77,-151.855 77,-151.855"/>
<polygon fill="#000000" stroke="#000000" points="73.5001,-151.8549 77,-161.855 80.5001,-151.855 73.5001,-151.8549"/>
</g>
<!-- AppComponent -->
<g id="node3" class="node">
<title>AppComponent</title>
<polygon fill="#ffffb3" stroke="#000000" points="1315.9399,-198 1210.0601,-198 1210.0601,-162 1315.9399,-162 1315.9399,-198"/>
<text text-anchor="middle" x="1263" y="-175.8" font-family="Times,serif" font-size="14.00" fill="#000000">AppComponent</text>
</g>
<!-- AppModule -->
<g id="node4" class="node">
<title>AppModule</title>
<polygon fill="#8dd3c7" stroke="#000000" points="1163.6571,-263 1160.6571,-267 1139.6571,-267 1136.6571,-263 1080.3429,-263 1080.3429,-227 1163.6571,-227 1163.6571,-263"/>
<text text-anchor="middle" x="1122" y="-240.8" font-family="Times,serif" font-size="14.00" fill="#000000">AppModule</text>
</g>
<!-- AppComponent&#45;&gt;AppModule -->
<g id="edge2" class="edge">
<title>AppComponent&#45;&gt;AppModule</title>
<path fill="none" stroke="#000000" d="M1263,-198.1061C1263,-217.3391 1263,-245 1263,-245 1263,-245 1173.9229,-245 1173.9229,-245"/>
<polygon fill="#000000" stroke="#000000" points="1173.9229,-241.5001 1163.9229,-245 1173.9229,-248.5001 1173.9229,-241.5001"/>
</g>
<!-- AppComponent  -->
<g id="node7" class="node">
<title>AppComponent </title>
<polygon fill="#80b1d3" stroke="#000000" points="1176.439,-328 1067.561,-328 1067.561,-292 1176.439,-292 1176.439,-328"/>
<text text-anchor="middle" x="1122" y="-305.8" font-family="Times,serif" font-size="14.00" fill="#000000">AppComponent </text>
</g>
<!-- AppModule&#45;&gt;AppComponent  -->
<g id="edge5" class="edge">
<title>AppModule&#45;&gt;AppComponent </title>
<path fill="none" stroke="#000000" stroke-dasharray="1,5" d="M1122,-263.1061C1122,-263.1061 1122,-281.991 1122,-281.991"/>
<polygon fill="#000000" stroke="#000000" points="1118.5001,-281.9909 1122,-291.991 1125.5001,-281.991 1118.5001,-281.9909"/>
</g>
<!-- AppRoutingModule -->
<g id="node5" class="node">
<title>AppRoutingModule</title>
<polygon fill="#8dd3c7" stroke="#000000" points="1186.2744,-198 1183.2744,-202 1162.2744,-202 1159.2744,-198 1057.7256,-198 1057.7256,-162 1186.2744,-162 1186.2744,-198"/>
<text text-anchor="middle" x="1122" y="-175.8" font-family="Times,serif" font-size="14.00" fill="#000000">AppRoutingModule</text>
</g>
<!-- AppRoutingModule&#45;&gt;AppModule -->
<g id="edge3" class="edge">
<title>AppRoutingModule&#45;&gt;AppModule</title>
<path fill="none" stroke="#000000" d="M1122,-198.1061C1122,-198.1061 1122,-216.991 1122,-216.991"/>
<polygon fill="#000000" stroke="#000000" points="1118.5001,-216.9909 1122,-226.991 1125.5001,-216.991 1118.5001,-216.9909"/>
</g>
<!-- CoreModule -->
<g id="node6" class="node">
<title>CoreModule</title>
<polygon fill="#8dd3c7" stroke="#000000" points="1039.2619,-198 1036.2619,-202 1015.2619,-202 1012.2619,-198 952.7381,-198 952.7381,-162 1039.2619,-162 1039.2619,-198"/>
<text text-anchor="middle" x="996" y="-175.8" font-family="Times,serif" font-size="14.00" fill="#000000">CoreModule</text>
</g>
<!-- CoreModule&#45;&gt;AppModule -->
<g id="edge4" class="edge">
<title>CoreModule&#45;&gt;AppModule</title>
<path fill="none" stroke="#000000" d="M996,-198.1061C996,-217.3391 996,-245 996,-245 996,-245 1070.0438,-245 1070.0438,-245"/>
<polygon fill="#000000" stroke="#000000" points="1070.0439,-248.5001 1080.0438,-245 1070.0438,-241.5001 1070.0439,-248.5001"/>
</g>
<!-- AllocationService -->
<g id="node8" class="node">
<title>AllocationService</title>
<ellipse fill="#fdb462" stroke="#000000" cx="1986" cy="-104" rx="80.5142" ry="18"/>
<text text-anchor="middle" x="1986" y="-99.8" font-family="Times,serif" font-size="14.00" fill="#000000">AllocationService</text>
</g>
<!-- AllocationService&#45;&gt;CoreModule -->
<g id="edge6" class="edge">
<title>AllocationService&#45;&gt;CoreModule</title>
<path fill="none" stroke="#000000" d="M1986,-122.1871C1986,-137.1824 1986,-156 1986,-156 1986,-156 1026.9863,-156 1026.9863,-156 1026.9863,-156 1026.9863,-156.581 1026.9863,-156.581"/>
<polygon fill="#000000" stroke="#000000" points="1023.4865,-151.8097 1026.9863,-161.8097 1030.4865,-151.8098 1023.4865,-151.8097"/>
</g>
<!-- AuthenticationService -->
<g id="node9" class="node">
<title>AuthenticationService</title>
<ellipse fill="#fdb462" stroke="#000000" cx="1790" cy="-104" rx="97.2683" ry="18"/>
<text text-anchor="middle" x="1790" y="-99.8" font-family="Times,serif" font-size="14.00" fill="#000000">AuthenticationService</text>
</g>
<!-- AuthenticationService&#45;&gt;CoreModule -->
<g id="edge7" class="edge">
<title>AuthenticationService&#45;&gt;CoreModule</title>
<path fill="none" stroke="#000000" d="M1790,-122.0439C1790,-134.5633 1790,-149 1790,-149 1790,-149 1014.5918,-149 1014.5918,-149 1014.5918,-149 1014.5918,-151.9672 1014.5918,-151.9672"/>
<polygon fill="#000000" stroke="#000000" points="1011.0919,-151.9671 1014.5918,-161.9672 1018.0919,-151.9672 1011.0919,-151.9671"/>
</g>
<!-- CourseService -->
<g id="node10" class="node">
<title>CourseService</title>
<ellipse fill="#fdb462" stroke="#000000" cx="1607" cy="-104" rx="67.1927" ry="18"/>
<text text-anchor="middle" x="1607" y="-99.8" font-family="Times,serif" font-size="14.00" fill="#000000">CourseService</text>
</g>
<!-- CourseService&#45;&gt;CoreModule -->
<g id="edge8" class="edge">
<title>CourseService&#45;&gt;CoreModule</title>
<path fill="none" stroke="#000000" d="M1607,-122.1097C1607,-131.897 1607,-142 1607,-142 1607,-142 1002.1973,-142 1002.1973,-142 1002.1973,-142 1002.1973,-151.8903 1002.1973,-151.8903"/>
<polygon fill="#000000" stroke="#000000" points="998.6974,-151.8903 1002.1973,-161.8903 1005.6974,-151.8904 998.6974,-151.8903"/>
</g>
<!-- ErrorHandlerInterceptor -->
<g id="node11" class="node">
<title>ErrorHandlerInterceptor</title>
<ellipse fill="#fdb462" stroke="#000000" cx="1417" cy="-104" rx="104.7327" ry="18"/>
<text text-anchor="middle" x="1417" y="-99.8" font-family="Times,serif" font-size="14.00" fill="#000000">ErrorHandlerInterceptor</text>
</g>
<!-- ErrorHandlerInterceptor&#45;&gt;CoreModule -->
<g id="edge9" class="edge">
<title>ErrorHandlerInterceptor&#45;&gt;CoreModule</title>
<path fill="none" stroke="#000000" d="M1418.7929,-122.2434C1418.7929,-129.4297 1418.7929,-136 1418.7929,-136 1418.7929,-136 989.8027,-136 989.8027,-136 989.8027,-136 989.8027,-151.8495 989.8027,-151.8495"/>
<polygon fill="#000000" stroke="#000000" points="986.3028,-151.8494 989.8027,-161.8495 993.3028,-151.8495 986.3028,-151.8494"/>
</g>
<!-- ErrorMessageService -->
<g id="node12" class="node">
<title>ErrorMessageService</title>
<ellipse fill="#fdb462" stroke="#000000" cx="1200" cy="-104" rx="94.2963" ry="18"/>
<text text-anchor="middle" x="1200" y="-99.8" font-family="Times,serif" font-size="14.00" fill="#000000">ErrorMessageService</text>
</g>
<!-- ErrorMessageService&#45;&gt;CoreModule -->
<g id="edge10" class="edge">
<title>ErrorMessageService&#45;&gt;CoreModule</title>
<path fill="none" stroke="#000000" d="M1146.1195,-118.8315C1146.1195,-124.2148 1146.1195,-129 1146.1195,-129 1146.1195,-129 977.4082,-129 977.4082,-129 977.4082,-129 977.4082,-151.8757 977.4082,-151.8757"/>
<polygon fill="#000000" stroke="#000000" points="973.9083,-151.8757 977.4082,-161.8757 980.9083,-151.8757 973.9083,-151.8757"/>
</g>
<!-- LocalStorageService -->
<g id="node13" class="node">
<title>LocalStorageService</title>
<ellipse fill="#fdb462" stroke="#000000" cx="996" cy="-104" rx="91.4481" ry="18"/>
<text text-anchor="middle" x="996" y="-99.8" font-family="Times,serif" font-size="14.00" fill="#000000">LocalStorageService</text>
</g>
<!-- LocalStorageService&#45;&gt;CoreModule -->
<g id="edge11" class="edge">
<title>LocalStorageService&#45;&gt;CoreModule</title>
<path fill="none" stroke="#000000" d="M965.0137,-121.2456C965.0137,-121.2456 965.0137,-151.7629 965.0137,-151.7629"/>
<polygon fill="#000000" stroke="#000000" points="961.5138,-151.7628 965.0137,-161.7629 968.5138,-151.7629 961.5138,-151.7628"/>
</g>
<!-- LocationsService -->
<g id="node14" class="node">
<title>LocationsService</title>
<ellipse fill="#fdb462" stroke="#000000" cx="808" cy="-104" rx="78.1462" ry="18"/>
<text text-anchor="middle" x="808" y="-99.8" font-family="Times,serif" font-size="14.00" fill="#000000">LocationsService</text>
</g>
<!-- LocationsService&#45;&gt;CoreModule -->
<g id="edge12" class="edge">
<title>LocationsService&#45;&gt;CoreModule</title>
<path fill="none" stroke="#000000" d="M808,-122.1686C808,-141.0898 808,-168 808,-168 808,-168 942.3965,-168 942.3965,-168"/>
<polygon fill="#000000" stroke="#000000" points="942.3965,-171.5001 952.3965,-168 942.3964,-164.5001 942.3965,-171.5001"/>
</g>
<!-- OrganisationService -->
<g id="node15" class="node">
<title>OrganisationService</title>
<ellipse fill="#fdb462" stroke="#000000" cx="622" cy="-104" rx="89.7441" ry="18"/>
<text text-anchor="middle" x="622" y="-99.8" font-family="Times,serif" font-size="14.00" fill="#000000">OrganisationService</text>
</g>
<!-- OrganisationService&#45;&gt;CoreModule -->
<g id="edge13" class="edge">
<title>OrganisationService&#45;&gt;CoreModule</title>
<path fill="none" stroke="#000000" d="M622,-122.0267C622,-142.7672 622,-174 622,-174 622,-174 942.7321,-174 942.7321,-174"/>
<polygon fill="#000000" stroke="#000000" points="942.7321,-177.5001 952.7321,-174 942.732,-170.5001 942.7321,-177.5001"/>
</g>
<!-- RequestInterceptor -->
<g id="node16" class="node">
<title>RequestInterceptor</title>
<ellipse fill="#fdb462" stroke="#000000" cx="430" cy="-104" rx="84.5073" ry="18"/>
<text text-anchor="middle" x="430" y="-99.8" font-family="Times,serif" font-size="14.00" fill="#000000">RequestInterceptor</text>
</g>
<!-- RequestInterceptor&#45;&gt;CoreModule -->
<g id="edge14" class="edge">
<title>RequestInterceptor&#45;&gt;CoreModule</title>
<path fill="none" stroke="#000000" d="M458.1679,-121.2456C458.1679,-143.6688 458.1679,-180 458.1679,-180 458.1679,-180 942.4425,-180 942.4425,-180"/>
<polygon fill="#000000" stroke="#000000" points="942.4426,-183.5001 952.4425,-180 942.4425,-176.5001 942.4426,-183.5001"/>
</g>
<!-- RequestInterceptor&#45;&gt;CoreModule -->
<g id="edge15" class="edge">
<title>RequestInterceptor&#45;&gt;CoreModule</title>
<path fill="none" stroke="#000000" d="M401.8321,-120.9905C401.8321,-145.0088 401.8321,-186 401.8321,-186 401.8321,-186 942.3094,-186 942.3094,-186"/>
<polygon fill="#000000" stroke="#000000" points="942.3095,-189.5001 952.3094,-186 942.3094,-182.5001 942.3095,-189.5001"/>
</g>
<!-- VolunteerService -->
<g id="node17" class="node">
<title>VolunteerService</title>
<ellipse fill="#fdb462" stroke="#000000" cx="249" cy="-104" rx="78.7086" ry="18"/>
<text text-anchor="middle" x="249" y="-99.8" font-family="Times,serif" font-size="14.00" fill="#000000">VolunteerService</text>
</g>
<!-- VolunteerService&#45;&gt;CoreModule -->
<g id="edge16" class="edge">
<title>VolunteerService&#45;&gt;CoreModule</title>
<path fill="none" stroke="#000000" d="M249,-122.2337C249,-148.0094 249,-192 249,-192 249,-192 942.6093,-192 942.6093,-192"/>
<polygon fill="#000000" stroke="#000000" points="942.6094,-195.5001 952.6093,-192 942.6093,-188.5001 942.6094,-195.5001"/>
</g>
<!-- HomePage -->
<g id="node18" class="node">
<title>HomePage</title>
<polygon fill="#ffffb3" stroke="#000000" points="2197.9248,-122 2120.0752,-122 2120.0752,-86 2197.9248,-86 2197.9248,-122"/>
<text text-anchor="middle" x="2159" y="-99.8" font-family="Times,serif" font-size="14.00" fill="#000000">HomePage</text>
</g>
<!-- HomePageModule -->
<g id="node19" class="node">
<title>HomePageModule</title>
<polygon fill="#8dd3c7" stroke="#000000" points="2219.4734,-198 2216.4734,-202 2195.4734,-202 2192.4734,-198 2098.5266,-198 2098.5266,-162 2219.4734,-162 2219.4734,-198"/>
<text text-anchor="middle" x="2159" y="-175.8" font-family="Times,serif" font-size="14.00" fill="#000000">HomePageModule</text>
</g>
<!-- HomePage&#45;&gt;HomePageModule -->
<g id="edge17" class="edge">
<title>HomePage&#45;&gt;HomePageModule</title>
<path fill="none" stroke="#000000" d="M2159,-122.0109C2159,-122.0109 2159,-151.855 2159,-151.855"/>
<polygon fill="#000000" stroke="#000000" points="2155.5001,-151.8549 2159,-161.855 2162.5001,-151.855 2155.5001,-151.8549"/>
</g>
<!-- LoginPage -->
<g id="node20" class="node">
<title>LoginPage</title>
<polygon fill="#ffffb3" stroke="#000000" points="2341.1558,-122 2264.8442,-122 2264.8442,-86 2341.1558,-86 2341.1558,-122"/>
<text text-anchor="middle" x="2303" y="-99.8" font-family="Times,serif" font-size="14.00" fill="#000000">LoginPage</text>
</g>
<!-- LoginPageModule -->
<g id="node21" class="node">
<title>LoginPageModule</title>
<polygon fill="#8dd3c7" stroke="#000000" points="2363.205,-198 2360.205,-202 2339.205,-202 2336.205,-198 2242.795,-198 2242.795,-162 2363.205,-162 2363.205,-198"/>
<text text-anchor="middle" x="2303" y="-175.8" font-family="Times,serif" font-size="14.00" fill="#000000">LoginPageModule</text>
</g>
<!-- LoginPage&#45;&gt;LoginPageModule -->
<g id="edge18" class="edge">
<title>LoginPage&#45;&gt;LoginPageModule</title>
<path fill="none" stroke="#000000" d="M2303,-122.0109C2303,-122.0109 2303,-151.855 2303,-151.855"/>
<polygon fill="#000000" stroke="#000000" points="2299.5001,-151.8549 2303,-161.855 2306.5001,-151.855 2299.5001,-151.8549"/>
</g>
<!-- LogoutPage -->
<g id="node22" class="node">
<title>LogoutPage</title>
<polygon fill="#ffffb3" stroke="#000000" points="2492.6557,-122 2409.3443,-122 2409.3443,-86 2492.6557,-86 2492.6557,-122"/>
<text text-anchor="middle" x="2451" y="-99.8" font-family="Times,serif" font-size="14.00" fill="#000000">LogoutPage</text>
</g>
<!-- LogoutPageModule -->
<g id="node23" class="node">
<title>LogoutPageModule</title>
<polygon fill="#8dd3c7" stroke="#000000" points="2514.705,-198 2511.705,-202 2490.705,-202 2487.705,-198 2387.295,-198 2387.295,-162 2514.705,-162 2514.705,-198"/>
<text text-anchor="middle" x="2451" y="-175.8" font-family="Times,serif" font-size="14.00" fill="#000000">LogoutPageModule</text>
</g>
<!-- LogoutPage&#45;&gt;LogoutPageModule -->
<g id="edge19" class="edge">
<title>LogoutPage&#45;&gt;LogoutPageModule</title>
<path fill="none" stroke="#000000" d="M2451,-122.0109C2451,-122.0109 2451,-151.855 2451,-151.855"/>
<polygon fill="#000000" stroke="#000000" points="2447.5001,-151.8549 2451,-161.855 2454.5001,-151.855 2447.5001,-151.8549"/>
</g>
<!-- AddVolunteerComponent -->
<g id="node24" class="node">
<title>AddVolunteerComponent</title>
<polygon fill="#ffffb3" stroke="#000000" points="3382.9171,-122 3221.0829,-122 3221.0829,-86 3382.9171,-86 3382.9171,-122"/>
<text text-anchor="middle" x="3302" y="-99.8" font-family="Times,serif" font-size="14.00" fill="#000000">AddVolunteerComponent</text>
</g>
<!-- VolunteerPageModule -->
<g id="node29" class="node">
<title>VolunteerPageModule</title>
<polygon fill="#8dd3c7" stroke="#000000" points="3018.2394,-198 3015.2394,-202 2994.2394,-202 2991.2394,-198 2875.7606,-198 2875.7606,-162 3018.2394,-162 3018.2394,-198"/>
<text text-anchor="middle" x="2947" y="-175.8" font-family="Times,serif" font-size="14.00" fill="#000000">VolunteerPageModule</text>
</g>
<!-- AddVolunteerComponent&#45;&gt;VolunteerPageModule -->
<g id="edge20" class="edge">
<title>AddVolunteerComponent&#45;&gt;VolunteerPageModule</title>
<path fill="none" stroke="#000000" d="M3302,-122.1985C3302,-146.3563 3302,-186 3302,-186 3302,-186 3028.4125,-186 3028.4125,-186"/>
<polygon fill="#000000" stroke="#000000" points="3028.4125,-182.5001 3018.4125,-186 3028.4125,-189.5001 3028.4125,-182.5001"/>
</g>
<!-- ListVolunteerComponent -->
<g id="node25" class="node">
<title>ListVolunteerComponent</title>
<polygon fill="#ffffb3" stroke="#000000" points="3203.5884,-122 3044.4116,-122 3044.4116,-86 3203.5884,-86 3203.5884,-122"/>
<text text-anchor="middle" x="3124" y="-99.8" font-family="Times,serif" font-size="14.00" fill="#000000">ListVolunteerComponent</text>
</g>
<!-- ListVolunteerComponent&#45;&gt;VolunteerPageModule -->
<g id="edge21" class="edge">
<title>ListVolunteerComponent&#45;&gt;VolunteerPageModule</title>
<path fill="none" stroke="#000000" d="M3124,-122.0267C3124,-142.7672 3124,-174 3124,-174 3124,-174 3028.4825,-174 3028.4825,-174"/>
<polygon fill="#000000" stroke="#000000" points="3028.4825,-170.5001 3018.4825,-174 3028.4824,-177.5001 3028.4825,-170.5001"/>
</g>
<!-- SendMessageComponent -->
<g id="node26" class="node">
<title>SendMessageComponent</title>
<polygon fill="#ffffb3" stroke="#000000" points="3026.3075,-122 2867.6925,-122 2867.6925,-86 3026.3075,-86 3026.3075,-122"/>
<text text-anchor="middle" x="2947" y="-99.8" font-family="Times,serif" font-size="14.00" fill="#000000">SendMessageComponent</text>
</g>
<!-- SendMessageComponent&#45;&gt;VolunteerPageModule -->
<g id="edge22" class="edge">
<title>SendMessageComponent&#45;&gt;VolunteerPageModule</title>
<path fill="none" stroke="#000000" d="M2947,-122.0109C2947,-122.0109 2947,-151.855 2947,-151.855"/>
<polygon fill="#000000" stroke="#000000" points="2943.5001,-151.8549 2947,-161.855 2950.5001,-151.855 2943.5001,-151.8549"/>
</g>
<!-- ValidateVolunteerComponent -->
<g id="node27" class="node">
<title>ValidateVolunteerComponent</title>
<polygon fill="#ffffb3" stroke="#000000" points="2849.2324,-122 2664.7676,-122 2664.7676,-86 2849.2324,-86 2849.2324,-122"/>
<text text-anchor="middle" x="2757" y="-99.8" font-family="Times,serif" font-size="14.00" fill="#000000">ValidateVolunteerComponent</text>
</g>
<!-- ValidateVolunteerComponent&#45;&gt;VolunteerPageModule -->
<g id="edge23" class="edge">
<title>ValidateVolunteerComponent&#45;&gt;VolunteerPageModule</title>
<path fill="none" stroke="#000000" d="M2757,-122.0267C2757,-142.7672 2757,-174 2757,-174 2757,-174 2865.7104,-174 2865.7104,-174"/>
<polygon fill="#000000" stroke="#000000" points="2865.7105,-177.5001 2875.7104,-174 2865.7104,-170.5001 2865.7105,-177.5001"/>
</g>
<!-- VolunteerPage -->
<g id="node28" class="node">
<title>VolunteerPage</title>
<polygon fill="#ffffb3" stroke="#000000" points="2646.6896,-122 2547.3104,-122 2547.3104,-86 2646.6896,-86 2646.6896,-122"/>
<text text-anchor="middle" x="2597" y="-99.8" font-family="Times,serif" font-size="14.00" fill="#000000">VolunteerPage</text>
</g>
<!-- VolunteerPage&#45;&gt;VolunteerPageModule -->
<g id="edge24" class="edge">
<title>VolunteerPage&#45;&gt;VolunteerPageModule</title>
<path fill="none" stroke="#000000" d="M2597,-122.1985C2597,-146.3563 2597,-186 2597,-186 2597,-186 2865.7504,-186 2865.7504,-186"/>
<polygon fill="#000000" stroke="#000000" points="2865.7504,-189.5001 2875.7504,-186 2865.7504,-182.5001 2865.7504,-189.5001"/>
</g>
</g>
</svg>
